<svg width="333" height="198" viewBox="0 0 333 198" fill="none" xmlns="http://www.w3.org/2000/svg">
<path d="M52.6157 148.176C62.9496 148.176 68.1165 151.952 68.1165 159.503C68.1165 161.14 67.7685 162.645 67.0724 164.018C66.4299 165.338 65.6803 166.394 64.8236 167.186C63.9669 167.925 63.0032 168.559 61.9323 169.087C60.2724 169.879 58.9606 170.354 57.9968 170.513C59.1213 170.777 60.4063 171.305 61.852 172.097C63.3512 172.836 64.5559 173.628 65.4661 174.473C66.3764 175.265 67.1795 176.4 67.8756 177.879C68.6252 179.305 69 180.889 69 182.631C69 187.437 67.2063 190.895 63.6189 193.008C60.0315 195.12 54.3291 196.176 46.5118 196.176H22.0961L18 148.176H52.6157ZM44.3433 176.453H40.4882L39.2835 188.176H42.2551C44.4504 188.176 46.2173 187.595 47.5559 186.433C48.8945 185.272 49.5638 183.74 49.5638 181.839C49.5638 179.938 49.0551 178.565 48.0378 177.721C47.0205 176.876 45.789 176.453 44.3433 176.453ZM43.6205 167.265C45.4945 167.265 47.074 166.737 48.3591 165.681C49.6441 164.625 50.2866 163.226 50.2866 161.483C50.2866 158.051 48.2787 156.334 44.263 156.334H42.4961L41.3717 167.265H43.6205Z" fill="#364E8A"/>
<path d="M105.937 148.176C116.068 148.176 121.134 151.952 121.134 159.503C121.134 161.14 120.793 162.645 120.11 164.018C119.48 165.338 118.745 166.394 117.906 167.186C117.066 167.925 116.121 168.559 115.071 169.087C113.444 169.879 112.157 170.354 111.213 170.513C112.315 170.777 113.575 171.305 114.992 172.097C116.462 172.836 117.643 173.628 118.535 174.473C119.428 175.265 120.215 176.4 120.898 177.879C121.633 179.305 122 180.889 122 182.631C122 187.437 120.241 190.895 116.724 193.008C113.207 195.12 107.617 196.176 99.9528 196.176H76.0157L72 148.176H105.937ZM97.8268 176.453H94.0472L92.8661 188.176H95.7795C97.9318 188.176 99.664 187.595 100.976 186.433C102.289 185.272 102.945 183.74 102.945 181.839C102.945 179.938 102.446 178.565 101.449 177.721C100.451 176.876 99.2441 176.453 97.8268 176.453ZM97.1181 167.265C98.9554 167.265 100.504 166.737 101.764 165.681C103.024 164.625 103.654 163.226 103.654 161.483C103.654 158.051 101.685 156.334 97.748 156.334H96.0157L94.9134 167.265H97.1181Z" fill="#364E8A"/>
<path d="M140.76 195.176L135 137H165.24L160.92 180.296L178.296 179.336L172.824 195.176H140.76Z" fill="#E1153A"/>
<path fill-rule="evenodd" clip-rule="evenodd" d="M326.681 184.117C323.19 184.118 320.361 186.946 320.361 190.437C320.361 193.927 323.19 196.756 326.681 196.756C330.171 196.756 333 193.927 333 190.437C333 186.946 330.171 184.118 326.681 184.117ZM326.681 195.875C328.184 195.874 329.54 195.267 330.526 194.282C331.51 193.296 332.118 191.94 332.118 190.437C332.118 189.192 331.7 188.049 330.998 187.132C330.994 187.134 330.549 186.611 330.545 186.612C330.538 186.606 330.532 186.598 330.526 186.592C329.54 185.607 328.184 184.999 326.681 184.999C325.178 184.999 323.821 185.607 322.835 186.592C321.851 187.577 321.243 188.934 321.243 190.437C321.243 191.681 321.661 192.824 322.363 193.741C322.37 193.747 322.829 194.275 322.836 194.282C323.821 195.267 325.178 195.874 326.681 195.875Z" fill="#364E8A"/>
<path d="M324.562 192.097C324.404 192.005 324.202 192.06 324.11 192.218C324.028 192.36 323.936 192.496 323.836 192.624C323.724 192.769 323.75 192.976 323.894 193.089C324.038 193.201 324.246 193.175 324.358 193.031C324.477 192.878 324.585 192.717 324.683 192.549C324.774 192.39 324.72 192.188 324.562 192.097Z" fill="#E1153A"/>
<path d="M323.605 187.093C323.452 186.975 323.291 186.867 323.122 186.77C322.964 186.679 322.762 186.733 322.671 186.892C322.58 187.05 322.635 187.252 322.793 187.343C322.935 187.425 323.072 187.516 323.201 187.616C323.345 187.728 323.553 187.701 323.665 187.557C323.776 187.412 323.75 187.205 323.605 187.093Z" fill="#E1153A"/>
<path d="M329.76 186.97C329.913 186.852 330.075 186.744 330.244 186.647C330.402 186.556 330.604 186.611 330.695 186.769C330.786 186.928 330.731 187.129 330.573 187.22C330.43 187.302 330.294 187.393 330.165 187.493C330.02 187.605 329.813 187.578 329.701 187.434C329.589 187.29 329.616 187.082 329.76 186.97Z" fill="#E1153A"/>
<path d="M323.568 193.931C323.415 194.05 323.254 194.158 323.085 194.255C322.926 194.346 322.724 194.291 322.633 194.132C322.543 193.974 322.597 193.772 322.756 193.681C322.898 193.599 323.034 193.508 323.163 193.408C323.308 193.296 323.516 193.323 323.627 193.467C323.739 193.612 323.713 193.819 323.568 193.931Z" fill="#E1153A"/>
<path d="M324.32 189.082C324.389 189.251 324.582 189.331 324.751 189.262C324.92 189.192 325.001 188.999 324.931 188.83C324.857 188.65 324.771 188.476 324.674 188.309C324.581 188.152 324.379 188.098 324.221 188.19C324.064 188.283 324.01 188.485 324.102 188.643C324.184 188.783 324.257 188.93 324.32 189.082Z" fill="#E1153A"/>
<path d="M324.915 190.089C324.733 190.09 324.585 190.238 324.586 190.421V190.437C324.586 190.603 324.575 190.767 324.553 190.926C324.528 191.107 324.654 191.274 324.835 191.299C325.016 191.324 325.183 191.197 325.208 191.016C325.234 190.827 325.247 190.633 325.247 190.437V190.418C325.247 190.236 325.098 190.088 324.915 190.089Z" fill="#E1153A"/>
<path d="M328.775 190.445V190.437C328.775 190.273 328.786 190.113 328.807 189.955C328.832 189.774 328.705 189.607 328.524 189.583C328.343 189.559 328.176 189.685 328.152 189.866C328.126 190.053 328.113 190.243 328.113 190.437V190.446C328.114 190.629 328.262 190.776 328.445 190.776C328.627 190.776 328.775 190.627 328.775 190.445Z" fill="#E1153A"/>
<path d="M329.038 191.785C328.969 191.616 328.776 191.534 328.607 191.604C328.438 191.673 328.357 191.866 328.426 192.035C328.5 192.215 328.586 192.389 328.683 192.556C328.774 192.714 328.977 192.768 329.135 192.676C329.293 192.584 329.346 192.382 329.255 192.224C329.173 192.083 329.1 191.937 329.038 191.785Z" fill="#E1153A"/>
<path d="M330.561 193.526V193.527C330.419 193.445 330.283 193.353 330.154 193.253C330.01 193.141 329.802 193.167 329.69 193.311C329.578 193.455 329.604 193.663 329.748 193.775C329.901 193.894 330.062 194.002 330.231 194.1C330.389 194.191 330.591 194.136 330.683 193.978C330.774 193.82 330.719 193.618 330.561 193.526Z" fill="#E1153A"/>
<path d="M329.462 187.791C329.317 187.679 329.109 187.706 328.998 187.85C328.879 188.003 328.771 188.164 328.674 188.333C328.583 188.491 328.637 188.693 328.795 188.785C328.954 188.876 329.156 188.821 329.247 188.663C329.329 188.521 329.42 188.384 329.52 188.255C329.632 188.111 329.606 187.903 329.462 187.791Z" fill="#E1153A"/>
<path d="M196.209 196.176C192.065 196.176 188.647 195.001 185.956 192.652C183.319 190.303 182 186.987 182 182.706C182 178.373 183.507 175.24 186.521 173.309C189.535 171.325 193.168 170.333 197.42 170.333C201.672 170.333 205.359 170.985 208.481 172.29C207.781 167.957 204.955 165.79 200.004 165.79C197.743 165.79 194.944 166.234 191.607 167.122L189.589 160.074C194.433 158.142 199.358 157.176 204.363 157.176C218.788 157.176 226 163.128 226 175.031C226 179.104 225.516 184.742 224.547 191.947L224.143 195.393H210.822L210.338 191.086C206.678 194.479 201.968 196.176 196.209 196.176ZM203.475 186.465C205.897 186.465 207.969 185.813 209.692 184.507L209.207 179.339C207.862 178.451 206.355 178.007 204.686 178.007C203.072 178.007 201.726 178.399 200.65 179.182C199.627 179.965 199.116 180.931 199.116 182.08C199.116 183.228 199.519 184.246 200.327 185.134C201.134 186.021 202.183 186.465 203.475 186.465Z" fill="#364E8A"/>
<path d="M247.451 161.194C247.926 160.668 248.982 159.984 250.619 159.143C252.308 158.301 254.077 157.88 255.924 157.88C257.825 157.88 259.62 158.169 261.309 158.748C263.052 159.327 264.741 160.274 266.378 161.589C268.067 162.851 269.413 164.798 270.416 167.428C271.472 170.058 272 173.188 272 176.818C272 183.446 270.495 188.496 267.486 191.968C264.477 195.44 260.623 197.176 255.924 197.176C251.226 197.176 247.425 195.282 244.521 191.495C244.468 191.389 244.416 191.311 244.363 191.258L243.017 196.387H231.138L229 145.176H247.055L246.422 162.457C246.633 162.141 246.976 161.72 247.451 161.194ZM250.936 168.454C247.451 168.454 245.709 171.61 245.709 177.923C245.709 180.079 246.105 182.026 246.897 183.762C247.742 185.445 248.929 186.287 250.46 186.287C251.991 186.287 253.153 185.708 253.945 184.551C254.737 183.394 255.212 182.289 255.37 181.237C255.529 180.185 255.608 179.08 255.608 177.923C255.608 171.61 254.05 168.454 250.936 168.454Z" fill="#364E8A"/>
<path d="M281.184 191.556C277.395 188.423 275.5 183.463 275.5 176.676C275.5 169.889 277.395 164.955 281.184 161.875C285.026 158.742 290.132 157.176 296.5 157.176C302.868 157.176 307.947 158.742 311.737 161.875C315.579 164.955 317.5 169.889 317.5 176.676C317.5 183.463 315.579 188.423 311.737 191.556C307.947 194.636 302.868 196.176 296.5 196.176C290.132 196.176 285.026 194.636 281.184 191.556ZM293.184 167.827C292.553 169.602 292.237 172.552 292.237 176.676C292.237 180.801 292.553 183.776 293.184 185.604C293.816 187.379 294.921 188.266 296.5 188.266C298.079 188.266 299.184 187.379 299.816 185.604C300.447 183.776 300.763 180.801 300.763 176.676C300.763 172.552 300.447 169.602 299.816 167.827C299.184 165.999 298.079 165.086 296.5 165.086C294.921 165.086 293.816 165.999 293.184 167.827Z" fill="#364E8A"/>
<mask id="path-18-outside-1" maskUnits="userSpaceOnUse" x="91" y="0" width="156" height="27" fill="black">
<rect fill="white" x="91" width="156" height="27"/>
<path d="M106.001 2.28897C109.882 2.28897 111.823 3.71783 111.823 6.57554C111.823 7.19504 111.692 7.76459 111.431 8.28417C111.189 8.78377 110.908 9.18345 110.586 9.48321C110.264 9.76299 109.902 10.0028 109.5 10.2026C108.877 10.5024 108.384 10.6823 108.022 10.7422C108.444 10.8421 108.927 11.042 109.47 11.3417C110.033 11.6215 110.486 11.9213 110.828 12.241C111.169 12.5408 111.471 12.9704 111.732 13.53C112.014 14.0695 112.155 14.6691 112.155 15.3285C112.155 17.1471 111.481 18.456 110.134 19.2554C108.786 20.0548 106.645 20.4544 103.709 20.4544H94.5384L93 2.28897H106.001ZM102.894 12.9904H101.446L100.994 17.4269H102.11C102.934 17.4269 103.598 17.207 104.101 16.7674C104.603 16.3277 104.855 15.7482 104.855 15.0288C104.855 14.3094 104.664 13.7898 104.282 13.47C103.9 13.1503 103.437 12.9904 102.894 12.9904ZM102.623 9.51319C103.326 9.51319 103.92 9.31335 104.402 8.91367C104.885 8.51399 105.126 7.98441 105.126 7.32494C105.126 6.02598 104.372 5.3765 102.864 5.3765H102.2L101.778 9.51319H102.623Z"/>
<path d="M115.675 18.9856C114.227 17.7866 113.503 15.8881 113.503 13.2902C113.503 10.6922 114.227 8.80376 115.675 7.6247C117.143 6.42566 119.093 5.82614 121.527 5.82614C123.96 5.82614 125.901 6.42566 127.349 7.6247C128.817 8.80376 129.551 10.6922 129.551 13.2902C129.551 15.8881 128.817 17.7866 127.349 18.9856C125.901 20.1647 123.96 20.7542 121.527 20.7542C119.093 20.7542 117.143 20.1647 115.675 18.9856ZM120.26 9.90288C120.018 10.5823 119.898 11.7114 119.898 13.2902C119.898 14.8689 120.018 16.008 120.26 16.7074C120.501 17.3869 120.923 17.7266 121.527 17.7266C122.13 17.7266 122.552 17.3869 122.794 16.7074C123.035 16.008 123.156 14.8689 123.156 13.2902C123.156 11.7114 123.035 10.5823 122.794 9.90288C122.552 9.20344 122.13 8.85372 121.527 8.85372C120.923 8.85372 120.501 9.20344 120.26 9.90288Z"/>
<path d="M131.06 13.0204C131.06 11.6415 131.251 10.4524 131.633 9.45324C132.035 8.45404 132.558 7.70464 133.201 7.20504C134.388 6.28577 135.705 5.82614 137.153 5.82614C137.877 5.82614 138.541 5.97602 139.144 6.27578C139.767 6.55556 140.2 6.84532 140.441 7.14508L140.803 7.56475L140.562 1H147.439L146.625 20.4544H142.1L141.587 18.506C140.381 19.9848 138.893 20.7242 137.123 20.7242C135.373 20.7442 133.925 20.0947 132.779 18.7758C131.633 17.4568 131.06 15.5384 131.06 13.0204ZM139.084 9.84293C137.897 9.84293 137.304 11.042 137.304 13.44C137.304 13.8797 137.334 14.2994 137.394 14.699C137.455 15.0987 137.636 15.5184 137.937 15.958C138.239 16.3977 138.681 16.6175 139.265 16.6175C139.848 16.6175 140.29 16.2978 140.592 15.6583C140.914 14.9988 141.075 14.2594 141.075 13.44C141.075 11.042 140.411 9.84293 139.084 9.84293Z"/>
<path d="M159.706 17.1271V16.8873C159.646 17.227 159.485 17.6067 159.224 18.0264C158.982 18.4261 158.711 18.7658 158.409 19.0456C158.107 19.3253 157.675 19.5751 157.112 19.795C156.569 20.0148 155.845 20.1247 154.94 20.1247C154.035 20.1247 153.18 19.9249 152.376 19.5252C151.572 19.1055 150.948 18.536 150.506 17.8165C149.661 16.4776 149.239 15.0088 149.239 13.4101C149.239 11.7914 149.47 9.40328 149.933 6.2458H155.785V12.7206C155.785 14.9189 156.438 16.018 157.745 16.018C158.329 16.018 158.761 15.7582 159.043 15.2386C159.324 14.719 159.465 14.0596 159.465 13.2602C159.465 13.1603 159.465 13.0504 159.465 12.9305L159.193 6.2458H165.98L165.558 15.4484C165.498 16.7474 165.397 17.8565 165.257 18.7758C165.136 19.695 164.895 20.6343 164.533 21.5935C164.191 22.5727 163.738 23.3621 163.175 23.9616C161.868 25.3205 159.927 26 157.353 26C155.543 26 153.844 25.4404 152.255 24.3213L151.984 24.1415L153.251 21.5635C154.216 22.0032 155.121 22.223 155.966 22.223C157.132 22.223 158.047 21.7734 158.711 20.8741C159.374 19.9948 159.706 18.7458 159.706 17.1271Z"/>
<path d="M189.399 5.82614C191.028 5.82614 192.235 6.46563 193.019 7.7446C193.803 9.02358 194.195 10.5623 194.195 12.3609C194.195 14.1395 193.964 16.8373 193.502 20.4544H188.223L187.559 13.5C187.438 12.301 187.278 11.5016 187.076 11.1019C186.875 10.7022 186.533 10.5024 186.051 10.5024C184.905 10.5024 184.261 11.5116 184.12 13.53L183.607 20.4544H178.238L177.574 13.5C177.454 12.301 177.293 11.5016 177.092 11.1019C176.891 10.7022 176.549 10.5024 176.066 10.5024C174.88 10.5024 174.236 11.5116 174.136 13.53L173.834 20.4544H168.284L167.65 6.2458H174.467L174.347 9.09353C174.387 9.01359 174.437 8.90368 174.498 8.76379C174.578 8.60392 174.759 8.33413 175.041 7.95444C175.342 7.57474 175.674 7.245 176.036 6.96523C176.398 6.68545 176.891 6.42566 177.514 6.18585C178.158 5.94604 178.841 5.82614 179.565 5.82614C180.732 5.82614 181.677 6.19584 182.401 6.93525C183.145 7.67466 183.628 8.49401 183.849 9.39329C184.15 8.89369 184.412 8.494 184.633 8.19424C184.854 7.89448 185.186 7.53477 185.628 7.11511C186.533 6.2558 187.79 5.82614 189.399 5.82614Z"/>
<path d="M201.176 20.7542C199.628 20.7542 198.351 20.3046 197.345 19.4053C196.36 18.506 195.867 17.237 195.867 15.5983C195.867 13.9396 196.43 12.7406 197.557 12.0012C198.683 11.2418 200.04 10.8621 201.629 10.8621C203.218 10.8621 204.595 11.1119 205.762 11.6115C205.5 9.95284 204.444 9.1235 202.594 9.1235C201.75 9.1235 200.704 9.29337 199.457 9.63309L198.703 6.93525C200.513 6.19584 202.353 5.82614 204.223 5.82614C209.613 5.82614 212.307 8.10432 212.307 12.6607C212.307 14.2194 212.126 16.3777 211.764 19.1355L211.614 20.4544H206.636L206.455 18.8058C205.088 20.1047 203.328 20.7542 201.176 20.7542ZM203.891 17.0372C204.796 17.0372 205.57 16.7874 206.214 16.2878L206.033 14.3094C205.53 13.9696 204.967 13.7998 204.344 13.7998C203.74 13.7998 203.238 13.9496 202.836 14.2494C202.453 14.5492 202.262 14.9189 202.262 15.3585C202.262 15.7982 202.413 16.1879 202.715 16.5276C203.017 16.8673 203.409 17.0372 203.891 17.0372Z"/>
<path d="M225.749 20.4544C223.356 18.1563 221.667 16.5276 220.681 15.5683L220.47 20.4544H214.92L214.105 1H221.285L220.923 10.2326L223.969 6.2458H230.063L225.809 12.1811L230.666 20.4544H225.749Z"/>
<path d="M239.153 20.7542C236.88 20.7542 234.97 20.1047 233.421 18.8058C231.893 17.4868 231.129 15.5584 231.129 13.0204C231.129 11.4217 231.521 10.0627 232.305 8.94365C233.733 6.86531 235.945 5.82614 238.941 5.82614C241.234 5.82614 242.984 6.28577 244.19 7.20504C245.397 8.10432 246 9.35332 246 10.952C246 12.191 245.497 13.2002 244.492 13.9796C243.506 14.739 242.058 15.1187 240.148 15.1187C239.364 15.1187 238.66 15.0588 238.036 14.9388L237.705 14.8789C237.805 15.5983 238.117 16.1379 238.64 16.4976C239.183 16.8373 239.826 17.0072 240.57 17.0072C241.797 17.0072 242.843 16.6375 243.707 15.8981L245.578 18.1463C245.256 18.526 244.874 18.8857 244.431 19.2254C243.989 19.5452 243.285 19.8849 242.32 20.2446C241.355 20.5843 240.299 20.7542 239.153 20.7542ZM241.596 10.6823C241.596 10.2826 241.435 9.95284 241.113 9.69305C240.812 9.43325 240.389 9.30336 239.846 9.30336C239.303 9.30336 238.791 9.54317 238.308 10.0228C237.845 10.5024 237.614 11.0719 237.614 11.7314C238.057 11.9313 238.63 12.0312 239.334 12.0312C240.057 12.0312 240.611 11.9113 240.993 11.6715C241.395 11.4117 241.596 11.0819 241.596 10.6823Z"/>
</mask>
<path d="M106.001 2.28897C109.882 2.28897 111.823 3.71783 111.823 6.57554C111.823 7.19504 111.692 7.76459 111.431 8.28417C111.189 8.78377 110.908 9.18345 110.586 9.48321C110.264 9.76299 109.902 10.0028 109.5 10.2026C108.877 10.5024 108.384 10.6823 108.022 10.7422C108.444 10.8421 108.927 11.042 109.47 11.3417C110.033 11.6215 110.486 11.9213 110.828 12.241C111.169 12.5408 111.471 12.9704 111.732 13.53C112.014 14.0695 112.155 14.6691 112.155 15.3285C112.155 17.1471 111.481 18.456 110.134 19.2554C108.786 20.0548 106.645 20.4544 103.709 20.4544H94.5384L93 2.28897H106.001ZM102.894 12.9904H101.446L100.994 17.4269H102.11C102.934 17.4269 103.598 17.207 104.101 16.7674C104.603 16.3277 104.855 15.7482 104.855 15.0288C104.855 14.3094 104.664 13.7898 104.282 13.47C103.9 13.1503 103.437 12.9904 102.894 12.9904ZM102.623 9.51319C103.326 9.51319 103.92 9.31335 104.402 8.91367C104.885 8.51399 105.126 7.98441 105.126 7.32494C105.126 6.02598 104.372 5.3765 102.864 5.3765H102.2L101.778 9.51319H102.623Z" fill="white"/>
<path d="M115.675 18.9856C114.227 17.7866 113.503 15.8881 113.503 13.2902C113.503 10.6922 114.227 8.80376 115.675 7.6247C117.143 6.42566 119.093 5.82614 121.527 5.82614C123.96 5.82614 125.901 6.42566 127.349 7.6247C128.817 8.80376 129.551 10.6922 129.551 13.2902C129.551 15.8881 128.817 17.7866 127.349 18.9856C125.901 20.1647 123.96 20.7542 121.527 20.7542C119.093 20.7542 117.143 20.1647 115.675 18.9856ZM120.26 9.90288C120.018 10.5823 119.898 11.7114 119.898 13.2902C119.898 14.8689 120.018 16.008 120.26 16.7074C120.501 17.3869 120.923 17.7266 121.527 17.7266C122.13 17.7266 122.552 17.3869 122.794 16.7074C123.035 16.008 123.156 14.8689 123.156 13.2902C123.156 11.7114 123.035 10.5823 122.794 9.90288C122.552 9.20344 122.13 8.85372 121.527 8.85372C120.923 8.85372 120.501 9.20344 120.26 9.90288Z" fill="white"/>
<path d="M131.06 13.0204C131.06 11.6415 131.251 10.4524 131.633 9.45324C132.035 8.45404 132.558 7.70464 133.201 7.20504C134.388 6.28577 135.705 5.82614 137.153 5.82614C137.877 5.82614 138.541 5.97602 139.144 6.27578C139.767 6.55556 140.2 6.84532 140.441 7.14508L140.803 7.56475L140.562 1H147.439L146.625 20.4544H142.1L141.587 18.506C140.381 19.9848 138.893 20.7242 137.123 20.7242C135.373 20.7442 133.925 20.0947 132.779 18.7758C131.633 17.4568 131.06 15.5384 131.06 13.0204ZM139.084 9.84293C137.897 9.84293 137.304 11.042 137.304 13.44C137.304 13.8797 137.334 14.2994 137.394 14.699C137.455 15.0987 137.636 15.5184 137.937 15.958C138.239 16.3977 138.681 16.6175 139.265 16.6175C139.848 16.6175 140.29 16.2978 140.592 15.6583C140.914 14.9988 141.075 14.2594 141.075 13.44C141.075 11.042 140.411 9.84293 139.084 9.84293Z" fill="white"/>
<path d="M159.706 17.1271V16.8873C159.646 17.227 159.485 17.6067 159.224 18.0264C158.982 18.4261 158.711 18.7658 158.409 19.0456C158.107 19.3253 157.675 19.5751 157.112 19.795C156.569 20.0148 155.845 20.1247 154.94 20.1247C154.035 20.1247 153.18 19.9249 152.376 19.5252C151.572 19.1055 150.948 18.536 150.506 17.8165C149.661 16.4776 149.239 15.0088 149.239 13.4101C149.239 11.7914 149.47 9.40328 149.933 6.2458H155.785V12.7206C155.785 14.9189 156.438 16.018 157.745 16.018C158.329 16.018 158.761 15.7582 159.043 15.2386C159.324 14.719 159.465 14.0596 159.465 13.2602C159.465 13.1603 159.465 13.0504 159.465 12.9305L159.193 6.2458H165.98L165.558 15.4484C165.498 16.7474 165.397 17.8565 165.257 18.7758C165.136 19.695 164.895 20.6343 164.533 21.5935C164.191 22.5727 163.738 23.3621 163.175 23.9616C161.868 25.3205 159.927 26 157.353 26C155.543 26 153.844 25.4404 152.255 24.3213L151.984 24.1415L153.251 21.5635C154.216 22.0032 155.121 22.223 155.966 22.223C157.132 22.223 158.047 21.7734 158.711 20.8741C159.374 19.9948 159.706 18.7458 159.706 17.1271Z" fill="white"/>
<path d="M189.399 5.82614C191.028 5.82614 192.235 6.46563 193.019 7.7446C193.803 9.02358 194.195 10.5623 194.195 12.3609C194.195 14.1395 193.964 16.8373 193.502 20.4544H188.223L187.559 13.5C187.438 12.301 187.278 11.5016 187.076 11.1019C186.875 10.7022 186.533 10.5024 186.051 10.5024C184.905 10.5024 184.261 11.5116 184.12 13.53L183.607 20.4544H178.238L177.574 13.5C177.454 12.301 177.293 11.5016 177.092 11.1019C176.891 10.7022 176.549 10.5024 176.066 10.5024C174.88 10.5024 174.236 11.5116 174.136 13.53L173.834 20.4544H168.284L167.65 6.2458H174.467L174.347 9.09353C174.387 9.01359 174.437 8.90368 174.498 8.76379C174.578 8.60392 174.759 8.33413 175.041 7.95444C175.342 7.57474 175.674 7.245 176.036 6.96523C176.398 6.68545 176.891 6.42566 177.514 6.18585C178.158 5.94604 178.841 5.82614 179.565 5.82614C180.732 5.82614 181.677 6.19584 182.401 6.93525C183.145 7.67466 183.628 8.49401 183.849 9.39329C184.15 8.89369 184.412 8.494 184.633 8.19424C184.854 7.89448 185.186 7.53477 185.628 7.11511C186.533 6.2558 187.79 5.82614 189.399 5.82614Z" fill="white"/>
<path d="M201.176 20.7542C199.628 20.7542 198.351 20.3046 197.345 19.4053C196.36 18.506 195.867 17.237 195.867 15.5983C195.867 13.9396 196.43 12.7406 197.557 12.0012C198.683 11.2418 200.04 10.8621 201.629 10.8621C203.218 10.8621 204.595 11.1119 205.762 11.6115C205.5 9.95284 204.444 9.1235 202.594 9.1235C201.75 9.1235 200.704 9.29337 199.457 9.63309L198.703 6.93525C200.513 6.19584 202.353 5.82614 204.223 5.82614C209.613 5.82614 212.307 8.10432 212.307 12.6607C212.307 14.2194 212.126 16.3777 211.764 19.1355L211.614 20.4544H206.636L206.455 18.8058C205.088 20.1047 203.328 20.7542 201.176 20.7542ZM203.891 17.0372C204.796 17.0372 205.57 16.7874 206.214 16.2878L206.033 14.3094C205.53 13.9696 204.967 13.7998 204.344 13.7998C203.74 13.7998 203.238 13.9496 202.836 14.2494C202.453 14.5492 202.262 14.9189 202.262 15.3585C202.262 15.7982 202.413 16.1879 202.715 16.5276C203.017 16.8673 203.409 17.0372 203.891 17.0372Z" fill="white"/>
<path d="M225.749 20.4544C223.356 18.1563 221.667 16.5276 220.681 15.5683L220.47 20.4544H214.92L214.105 1H221.285L220.923 10.2326L223.969 6.2458H230.063L225.809 12.1811L230.666 20.4544H225.749Z" fill="white"/>
<path d="M239.153 20.7542C236.88 20.7542 234.97 20.1047 233.421 18.8058C231.893 17.4868 231.129 15.5584 231.129 13.0204C231.129 11.4217 231.521 10.0627 232.305 8.94365C233.733 6.86531 235.945 5.82614 238.941 5.82614C241.234 5.82614 242.984 6.28577 244.19 7.20504C245.397 8.10432 246 9.35332 246 10.952C246 12.191 245.497 13.2002 244.492 13.9796C243.506 14.739 242.058 15.1187 240.148 15.1187C239.364 15.1187 238.66 15.0588 238.036 14.9388L237.705 14.8789C237.805 15.5983 238.117 16.1379 238.64 16.4976C239.183 16.8373 239.826 17.0072 240.57 17.0072C241.797 17.0072 242.843 16.6375 243.707 15.8981L245.578 18.1463C245.256 18.526 244.874 18.8857 244.431 19.2254C243.989 19.5452 243.285 19.8849 242.32 20.2446C241.355 20.5843 240.299 20.7542 239.153 20.7542ZM241.596 10.6823C241.596 10.2826 241.435 9.95284 241.113 9.69305C240.812 9.43325 240.389 9.30336 239.846 9.30336C239.303 9.30336 238.791 9.54317 238.308 10.0228C237.845 10.5024 237.614 11.0719 237.614 11.7314C238.057 11.9313 238.63 12.0312 239.334 12.0312C240.057 12.0312 240.611 11.9113 240.993 11.6715C241.395 11.4117 241.596 11.0819 241.596 10.6823Z" fill="white"/>
<path d="M106.001 2.28897C109.882 2.28897 111.823 3.71783 111.823 6.57554C111.823 7.19504 111.692 7.76459 111.431 8.28417C111.189 8.78377 110.908 9.18345 110.586 9.48321C110.264 9.76299 109.902 10.0028 109.5 10.2026C108.877 10.5024 108.384 10.6823 108.022 10.7422C108.444 10.8421 108.927 11.042 109.47 11.3417C110.033 11.6215 110.486 11.9213 110.828 12.241C111.169 12.5408 111.471 12.9704 111.732 13.53C112.014 14.0695 112.155 14.6691 112.155 15.3285C112.155 17.1471 111.481 18.456 110.134 19.2554C108.786 20.0548 106.645 20.4544 103.709 20.4544H94.5384L93 2.28897H106.001ZM102.894 12.9904H101.446L100.994 17.4269H102.11C102.934 17.4269 103.598 17.207 104.101 16.7674C104.603 16.3277 104.855 15.7482 104.855 15.0288C104.855 14.3094 104.664 13.7898 104.282 13.47C103.9 13.1503 103.437 12.9904 102.894 12.9904ZM102.623 9.51319C103.326 9.51319 103.92 9.31335 104.402 8.91367C104.885 8.51399 105.126 7.98441 105.126 7.32494C105.126 6.02598 104.372 5.3765 102.864 5.3765H102.2L101.778 9.51319H102.623Z" stroke="black" stroke-width="2" mask="url(#path-18-outside-1)"/>
<path d="M115.675 18.9856C114.227 17.7866 113.503 15.8881 113.503 13.2902C113.503 10.6922 114.227 8.80376 115.675 7.6247C117.143 6.42566 119.093 5.82614 121.527 5.82614C123.96 5.82614 125.901 6.42566 127.349 7.6247C128.817 8.80376 129.551 10.6922 129.551 13.2902C129.551 15.8881 128.817 17.7866 127.349 18.9856C125.901 20.1647 123.96 20.7542 121.527 20.7542C119.093 20.7542 117.143 20.1647 115.675 18.9856ZM120.26 9.90288C120.018 10.5823 119.898 11.7114 119.898 13.2902C119.898 14.8689 120.018 16.008 120.26 16.7074C120.501 17.3869 120.923 17.7266 121.527 17.7266C122.13 17.7266 122.552 17.3869 122.794 16.7074C123.035 16.008 123.156 14.8689 123.156 13.2902C123.156 11.7114 123.035 10.5823 122.794 9.90288C122.552 9.20344 122.13 8.85372 121.527 8.85372C120.923 8.85372 120.501 9.20344 120.26 9.90288Z" stroke="black" stroke-width="2" mask="url(#path-18-outside-1)"/>
<path d="M131.06 13.0204C131.06 11.6415 131.251 10.4524 131.633 9.45324C132.035 8.45404 132.558 7.70464 133.201 7.20504C134.388 6.28577 135.705 5.82614 137.153 5.82614C137.877 5.82614 138.541 5.97602 139.144 6.27578C139.767 6.55556 140.2 6.84532 140.441 7.14508L140.803 7.56475L140.562 1H147.439L146.625 20.4544H142.1L141.587 18.506C140.381 19.9848 138.893 20.7242 137.123 20.7242C135.373 20.7442 133.925 20.0947 132.779 18.7758C131.633 17.4568 131.06 15.5384 131.06 13.0204ZM139.084 9.84293C137.897 9.84293 137.304 11.042 137.304 13.44C137.304 13.8797 137.334 14.2994 137.394 14.699C137.455 15.0987 137.636 15.5184 137.937 15.958C138.239 16.3977 138.681 16.6175 139.265 16.6175C139.848 16.6175 140.29 16.2978 140.592 15.6583C140.914 14.9988 141.075 14.2594 141.075 13.44C141.075 11.042 140.411 9.84293 139.084 9.84293Z" stroke="black" stroke-width="2" mask="url(#path-18-outside-1)"/>
<path d="M159.706 17.1271V16.8873C159.646 17.227 159.485 17.6067 159.224 18.0264C158.982 18.4261 158.711 18.7658 158.409 19.0456C158.107 19.3253 157.675 19.5751 157.112 19.795C156.569 20.0148 155.845 20.1247 154.94 20.1247C154.035 20.1247 153.18 19.9249 152.376 19.5252C151.572 19.1055 150.948 18.536 150.506 17.8165C149.661 16.4776 149.239 15.0088 149.239 13.4101C149.239 11.7914 149.47 9.40328 149.933 6.2458H155.785V12.7206C155.785 14.9189 156.438 16.018 157.745 16.018C158.329 16.018 158.761 15.7582 159.043 15.2386C159.324 14.719 159.465 14.0596 159.465 13.2602C159.465 13.1603 159.465 13.0504 159.465 12.9305L159.193 6.2458H165.98L165.558 15.4484C165.498 16.7474 165.397 17.8565 165.257 18.7758C165.136 19.695 164.895 20.6343 164.533 21.5935C164.191 22.5727 163.738 23.3621 163.175 23.9616C161.868 25.3205 159.927 26 157.353 26C155.543 26 153.844 25.4404 152.255 24.3213L151.984 24.1415L153.251 21.5635C154.216 22.0032 155.121 22.223 155.966 22.223C157.132 22.223 158.047 21.7734 158.711 20.8741C159.374 19.9948 159.706 18.7458 159.706 17.1271Z" stroke="black" stroke-width="2" mask="url(#path-18-outside-1)"/>
<path d="M189.399 5.82614C191.028 5.82614 192.235 6.46563 193.019 7.7446C193.803 9.02358 194.195 10.5623 194.195 12.3609C194.195 14.1395 193.964 16.8373 193.502 20.4544H188.223L187.559 13.5C187.438 12.301 187.278 11.5016 187.076 11.1019C186.875 10.7022 186.533 10.5024 186.051 10.5024C184.905 10.5024 184.261 11.5116 184.12 13.53L183.607 20.4544H178.238L177.574 13.5C177.454 12.301 177.293 11.5016 177.092 11.1019C176.891 10.7022 176.549 10.5024 176.066 10.5024C174.88 10.5024 174.236 11.5116 174.136 13.53L173.834 20.4544H168.284L167.65 6.2458H174.467L174.347 9.09353C174.387 9.01359 174.437 8.90368 174.498 8.76379C174.578 8.60392 174.759 8.33413 175.041 7.95444C175.342 7.57474 175.674 7.245 176.036 6.96523C176.398 6.68545 176.891 6.42566 177.514 6.18585C178.158 5.94604 178.841 5.82614 179.565 5.82614C180.732 5.82614 181.677 6.19584 182.401 6.93525C183.145 7.67466 183.628 8.49401 183.849 9.39329C184.15 8.89369 184.412 8.494 184.633 8.19424C184.854 7.89448 185.186 7.53477 185.628 7.11511C186.533 6.2558 187.79 5.82614 189.399 5.82614Z" stroke="black" stroke-width="2" mask="url(#path-18-outside-1)"/>
<path d="M201.176 20.7542C199.628 20.7542 198.351 20.3046 197.345 19.4053C196.36 18.506 195.867 17.237 195.867 15.5983C195.867 13.9396 196.43 12.7406 197.557 12.0012C198.683 11.2418 200.04 10.8621 201.629 10.8621C203.218 10.8621 204.595 11.1119 205.762 11.6115C205.5 9.95284 204.444 9.1235 202.594 9.1235C201.75 9.1235 200.704 9.29337 199.457 9.63309L198.703 6.93525C200.513 6.19584 202.353 5.82614 204.223 5.82614C209.613 5.82614 212.307 8.10432 212.307 12.6607C212.307 14.2194 212.126 16.3777 211.764 19.1355L211.614 20.4544H206.636L206.455 18.8058C205.088 20.1047 203.328 20.7542 201.176 20.7542ZM203.891 17.0372C204.796 17.0372 205.57 16.7874 206.214 16.2878L206.033 14.3094C205.53 13.9696 204.967 13.7998 204.344 13.7998C203.74 13.7998 203.238 13.9496 202.836 14.2494C202.453 14.5492 202.262 14.9189 202.262 15.3585C202.262 15.7982 202.413 16.1879 202.715 16.5276C203.017 16.8673 203.409 17.0372 203.891 17.0372Z" stroke="black" stroke-width="2" mask="url(#path-18-outside-1)"/>
<path d="M225.749 20.4544C223.356 18.1563 221.667 16.5276 220.681 15.5683L220.47 20.4544H214.92L214.105 1H221.285L220.923 10.2326L223.969 6.2458H230.063L225.809 12.1811L230.666 20.4544H225.749Z" stroke="black" stroke-width="2" mask="url(#path-18-outside-1)"/>
<path d="M239.153 20.7542C236.88 20.7542 234.97 20.1047 233.421 18.8058C231.893 17.4868 231.129 15.5584 231.129 13.0204C231.129 11.4217 231.521 10.0627 232.305 8.94365C233.733 6.86531 235.945 5.82614 238.941 5.82614C241.234 5.82614 242.984 6.28577 244.19 7.20504C245.397 8.10432 246 9.35332 246 10.952C246 12.191 245.497 13.2002 244.492 13.9796C243.506 14.739 242.058 15.1187 240.148 15.1187C239.364 15.1187 238.66 15.0588 238.036 14.9388L237.705 14.8789C237.805 15.5983 238.117 16.1379 238.64 16.4976C239.183 16.8373 239.826 17.0072 240.57 17.0072C241.797 17.0072 242.843 16.6375 243.707 15.8981L245.578 18.1463C245.256 18.526 244.874 18.8857 244.431 19.2254C243.989 19.5452 243.285 19.8849 242.32 20.2446C241.355 20.5843 240.299 20.7542 239.153 20.7542ZM241.596 10.6823C241.596 10.2826 241.435 9.95284 241.113 9.69305C240.812 9.43325 240.389 9.30336 239.846 9.30336C239.303 9.30336 238.791 9.54317 238.308 10.0228C237.845 10.5024 237.614 11.0719 237.614 11.7314C238.057 11.9313 238.63 12.0312 239.334 12.0312C240.057 12.0312 240.611 11.9113 240.993 11.6715C241.395 11.4117 241.596 11.0819 241.596 10.6823Z" stroke="black" stroke-width="2" mask="url(#path-18-outside-1)"/>
<mask id="path-19-outside-2" maskUnits="userSpaceOnUse" x="51" y="60" width="237" height="22" fill="black">
<rect fill="white" x="51" y="60" width="237" height="22"/>
<path d="M65.8847 62.305C69.7312 62.305 71.6544 63.7516 71.6544 66.6449C71.6544 67.2721 71.5249 67.8488 71.2658 68.3748C71.0266 68.8806 70.7476 69.2853 70.4287 69.5888C70.1098 69.872 69.7511 70.1148 69.3525 70.3171C68.7347 70.6206 68.2464 70.8027 67.8877 70.8634C68.3062 70.9646 68.7845 71.1669 69.3226 71.4704C69.8806 71.7537 70.3291 72.0572 70.6679 72.3809C71.0067 72.6844 71.3056 73.1194 71.5647 73.6859C71.8437 74.2322 71.9833 74.8392 71.9833 75.5068C71.9833 77.348 71.3156 78.6732 69.9803 79.4826C68.645 80.2919 66.5225 80.6965 63.6127 80.6965H54.5246L53 62.305H65.8847ZM62.8055 73.1396H61.3706L60.9221 77.6313H62.0283C62.8454 77.6313 63.5031 77.4087 64.0013 76.9636C64.4996 76.5185 64.7487 75.9317 64.7487 75.2033C64.7487 74.475 64.5594 73.9489 64.1807 73.6252C63.802 73.3015 63.3436 73.1396 62.8055 73.1396ZM62.5365 69.6191C63.234 69.6191 63.8219 69.4168 64.3003 69.0121C64.7786 68.6075 65.0177 68.0713 65.0177 67.4036C65.0177 66.0885 64.2704 65.431 62.7756 65.431H62.1179L61.6994 69.6191H62.5365Z"/>
<path d="M78.5807 81C77.0461 81 75.7805 80.5448 74.784 79.6343C73.8075 78.7238 73.3192 77.439 73.3192 75.78C73.3192 74.1007 73.8772 72.8867 74.9933 72.1381C76.1094 71.3692 77.4546 70.9848 79.0291 70.9848C80.6036 70.9848 81.9688 71.2377 83.1247 71.7436C82.8656 70.0642 81.8193 69.2246 79.9857 69.2246C79.1487 69.2246 78.1123 69.3966 76.8767 69.7405L76.1293 67.0091C77.923 66.2605 79.7466 65.8862 81.6001 65.8862C86.9413 65.8862 89.6119 68.1927 89.6119 72.8058C89.6119 74.3839 89.4325 76.569 89.0738 79.3612L88.9243 80.6965H83.9917L83.8123 79.0273C82.457 80.3424 80.7132 81 78.5807 81ZM81.2712 77.2367C82.1681 77.2367 82.9354 76.9838 83.5731 76.478L83.3938 74.475C82.8955 74.131 82.3375 73.959 81.7196 73.959C81.1217 73.959 80.6235 74.1108 80.2249 74.4143C79.8462 74.7178 79.6569 75.0921 79.6569 75.5372C79.6569 75.9823 79.8064 76.3768 80.1053 76.7208C80.4043 77.0647 80.7929 77.2367 81.2712 77.2367Z"/>
<path d="M104.368 76.1442C104.368 77.2974 103.99 78.2585 103.232 79.0273C102.475 79.7962 101.598 80.3222 100.602 80.6055C99.625 80.8685 98.6783 81 97.7615 81C96.8447 81 96.0376 80.9393 95.34 80.8179C94.6624 80.6965 94.0844 80.5549 93.6061 80.393C92.7292 80.0491 92.0317 79.7253 91.5135 79.4219L91.2444 79.2398L92.5598 76.478C93.7556 77.1659 94.7621 77.5099 95.5792 77.5099C96.3963 77.5099 96.8049 77.1659 96.8049 76.478C96.8049 76.134 96.5458 75.78 96.0276 75.4158C95.5094 75.0516 94.9414 74.7076 94.3236 74.3839C93.7257 74.0602 93.1677 73.5645 92.6495 72.8968C92.1313 72.2291 91.8722 71.4603 91.8722 70.5903C91.8722 69.0324 92.4502 67.8589 93.6061 67.0698C94.7621 66.2807 96.2867 65.8862 98.18 65.8862C99.1367 65.8862 100.073 65.9671 100.99 66.129C101.907 66.2908 102.595 66.4527 103.053 66.6146L103.711 66.8877L102.963 69.953C101.827 69.5281 100.861 69.3156 100.063 69.3156C99.2662 69.3156 98.8676 69.6292 98.8676 70.2564C98.8676 70.5599 99.057 70.8533 99.4356 71.1366C99.8143 71.3996 100.273 71.6626 100.811 71.9256C101.349 72.1887 101.887 72.4922 102.425 72.8361C102.963 73.1598 103.422 73.6151 103.8 74.2018C104.179 74.7683 104.368 75.4158 104.368 76.1442Z"/>
<path d="M113.823 81C111.571 81 109.677 80.3424 108.143 79.0273C106.628 77.692 105.871 75.7395 105.871 73.17C105.871 71.5513 106.259 70.1755 107.037 69.0425C108.452 66.9383 110.644 65.8862 113.614 65.8862C115.886 65.8862 117.619 66.3515 118.815 67.2822C120.011 68.1927 120.609 69.4573 120.609 71.0759C120.609 72.3303 120.111 73.352 119.114 74.1411C118.138 74.91 116.703 75.2944 114.809 75.2944C114.032 75.2944 113.334 75.2337 112.717 75.1123L112.388 75.0516C112.487 75.78 112.796 76.3263 113.315 76.6904C113.853 77.0344 114.49 77.2064 115.228 77.2064C116.444 77.2064 117.48 76.8321 118.337 76.0835L120.19 78.3596C119.872 78.7441 119.493 79.1082 119.054 79.4522C118.616 79.7759 117.918 80.1199 116.962 80.4841C116.005 80.828 114.959 81 113.823 81ZM116.244 70.8027C116.244 70.3981 116.085 70.0642 115.766 69.8012C115.467 69.5382 115.048 69.4067 114.51 69.4067C113.972 69.4067 113.464 69.6495 112.986 70.1351C112.527 70.6206 112.298 71.1973 112.298 71.8649C112.737 72.0673 113.305 72.1684 114.002 72.1684C114.72 72.1684 115.268 72.047 115.646 71.8042C116.045 71.5412 116.244 71.2074 116.244 70.8027Z"/>
<path d="M129.218 67.1609C129.397 66.9585 129.796 66.6955 130.413 66.3718C131.051 66.0481 131.719 65.8862 132.416 65.8862C133.134 65.8862 133.812 65.9975 134.449 66.22C135.107 66.4426 135.745 66.8068 136.363 67.3126C137 67.7982 137.509 68.5468 137.887 69.5584C138.286 70.5701 138.485 71.7739 138.485 73.17C138.485 75.7193 137.917 77.6616 136.781 78.997C135.645 80.3323 134.19 81 132.416 81C130.643 81 129.208 80.2716 128.112 78.8149C128.092 78.7744 128.072 78.7441 128.052 78.7238L127.544 80.6965H123.059L122.252 61H129.068L128.829 67.6464C128.909 67.525 129.038 67.3632 129.218 67.1609ZM130.533 69.953C129.218 69.953 128.56 71.1669 128.56 73.5948C128.56 74.4244 128.709 75.173 129.008 75.8407C129.327 76.4881 129.776 76.8118 130.354 76.8118C130.932 76.8118 131.37 76.5893 131.669 76.1442C131.968 75.699 132.147 75.2742 132.207 74.8695C132.267 74.4648 132.297 74.04 132.297 73.5948C132.297 71.1669 131.709 69.953 130.533 69.953Z"/>
<path d="M145.231 81C143.696 81 142.431 80.5448 141.434 79.6343C140.458 78.7238 139.97 77.439 139.97 75.78C139.97 74.1007 140.528 72.8867 141.644 72.1381C142.76 71.3692 144.105 70.9848 145.68 70.9848C147.254 70.9848 148.619 71.2377 149.775 71.7436C149.516 70.0642 148.47 69.2246 146.636 69.2246C145.799 69.2246 144.763 69.3966 143.527 69.7405L142.78 67.0091C144.573 66.2605 146.397 65.8862 148.25 65.8862C153.592 65.8862 156.262 68.1927 156.262 72.8058C156.262 74.3839 156.083 76.569 155.724 79.3612L155.575 80.6965H150.642L150.463 79.0273C149.107 80.3424 147.364 81 145.231 81ZM147.922 77.2367C148.818 77.2367 149.586 76.9838 150.224 76.478L150.044 74.475C149.546 74.131 148.988 73.959 148.37 73.959C147.772 73.959 147.274 74.1108 146.875 74.4143C146.497 74.7178 146.307 75.0921 146.307 75.5372C146.307 75.9823 146.457 76.3768 146.756 76.7208C147.055 77.0647 147.443 77.2367 147.922 77.2367Z"/>
<path d="M165.159 61L164.352 80.6965H158.851L158.044 61H165.159Z"/>
<path d="M174.064 61L173.256 80.6965H167.756L166.949 61H174.064Z"/>
<path d="M177.198 80.6965L175.703 62.305H186.884L190.262 71.3187L193.64 62.305H203.805L202.31 80.6965H196.181L195.105 69.7405L190.98 80.6965H186.137L182.011 69.7405L181.114 80.6965H177.198Z"/>
<path d="M213.258 81C211.006 81 209.113 80.3424 207.578 79.0273C206.064 77.692 205.306 75.7395 205.306 73.17C205.306 71.5513 205.695 70.1755 206.472 69.0425C207.887 66.9383 210.079 65.8862 213.049 65.8862C215.321 65.8862 217.055 66.3515 218.251 67.2822C219.447 68.1927 220.044 69.4573 220.044 71.0759C220.044 72.3303 219.546 73.352 218.55 74.1411C217.573 74.91 216.138 75.2944 214.245 75.2944C213.468 75.2944 212.77 75.2337 212.152 75.1123L211.823 75.0516C211.923 75.78 212.232 76.3263 212.75 76.6904C213.288 77.0344 213.926 77.2064 214.663 77.2064C215.879 77.2064 216.915 76.8321 217.772 76.0835L219.626 78.3596C219.307 78.7441 218.928 79.1082 218.49 79.4522C218.051 79.7759 217.354 80.1199 216.397 80.4841C215.441 80.828 214.394 81 213.258 81ZM215.68 70.8027C215.68 70.3981 215.52 70.0642 215.201 69.8012C214.902 69.5382 214.484 69.4067 213.946 69.4067C213.408 69.4067 212.9 69.6495 212.421 70.1351C211.963 70.6206 211.734 71.1973 211.734 71.8649C212.172 72.0673 212.74 72.1684 213.438 72.1684C214.155 72.1684 214.703 72.047 215.082 71.8042C215.48 71.5412 215.68 71.2074 215.68 70.8027Z"/>
<path d="M229.61 75.2944C229.59 76.4679 229.998 77.0546 230.836 77.0546C231.075 77.0546 231.364 76.9434 231.702 76.7208L232.33 79.6646C232.211 79.7658 232.041 79.8973 231.822 80.0592C231.623 80.2008 231.174 80.393 230.477 80.6358C229.799 80.8786 229.092 81 228.354 81C226.999 81 225.893 80.5346 225.036 79.6039C224.179 78.653 223.721 77.4492 223.661 75.9924L223.392 70.2564H221.09L221.449 66.3111H223.242L223.123 63.3369L230.208 61.8801L229.998 66.3111H231.732L232.091 70.2564H229.819L229.61 75.2944Z"/>
<path d="M246.112 65.8862C247.248 65.8862 248.175 66.2301 248.893 66.9181C249.61 67.5857 250.088 68.395 250.327 69.346C250.587 70.2969 250.716 71.5109 250.716 72.9879C250.716 74.4648 250.487 77.0344 250.029 80.6965H244.797L244.139 73.6555C244.02 72.4416 243.86 71.6323 243.661 71.2276C243.462 70.823 243.123 70.6206 242.644 70.6206C241.469 70.6206 240.831 71.6424 240.731 73.6859L240.432 80.6965H234.932L234.124 61H241.239L240.94 68.8907C241.578 67.5959 242.635 66.6955 244.109 66.1897C244.727 65.9874 245.395 65.8862 246.112 65.8862Z"/>
<path d="M254.52 79.2094C253.085 77.9954 252.367 76.0733 252.367 73.4431C252.367 70.8128 253.085 68.9009 254.52 67.7071C255.975 66.4932 257.908 65.8862 260.319 65.8862C262.731 65.8862 264.654 66.4932 266.089 67.7071C267.544 68.9009 268.271 70.8128 268.271 73.4431C268.271 76.0733 267.544 77.9954 266.089 79.2094C264.654 80.4031 262.731 81 260.319 81C257.908 81 255.975 80.4031 254.52 79.2094ZM259.064 70.0137C258.825 70.7016 258.705 71.8447 258.705 73.4431C258.705 75.0415 258.825 76.1947 259.064 76.9029C259.303 77.5908 259.721 77.9347 260.319 77.9347C260.917 77.9347 261.336 77.5908 261.575 76.9029C261.814 76.1947 261.934 75.0415 261.934 73.4431C261.934 71.8447 261.814 70.7016 261.575 70.0137C261.336 69.3055 260.917 68.9514 260.319 68.9514C259.721 68.9514 259.303 69.3055 259.064 70.0137Z"/>
<path d="M269.767 73.17C269.767 71.7739 269.956 70.5701 270.335 69.5584C270.734 68.5468 271.252 67.7881 271.89 67.2822C273.065 66.3515 274.371 65.8862 275.806 65.8862C276.523 65.8862 277.181 66.0379 277.779 66.3414C278.397 66.6247 278.825 66.9181 279.064 67.2215L279.423 67.6464L279.184 61H286L285.193 80.6965H280.709L280.2 78.7238C279.005 80.221 277.53 80.9697 275.776 80.9697C274.042 80.9899 272.607 80.3323 271.471 78.997C270.335 77.6616 269.767 75.7193 269.767 73.17ZM277.719 69.953C276.543 69.953 275.955 71.1669 275.955 73.5948C275.955 74.04 275.985 74.4648 276.045 74.8695C276.105 75.2742 276.284 75.699 276.583 76.1442C276.882 76.5893 277.321 76.8118 277.898 76.8118C278.476 76.8118 278.915 76.4881 279.214 75.8407C279.533 75.173 279.692 74.4244 279.692 73.5948C279.692 71.1669 279.035 69.953 277.719 69.953Z"/>
</mask>
<path d="M65.8847 62.305C69.7312 62.305 71.6544 63.7516 71.6544 66.6449C71.6544 67.2721 71.5249 67.8488 71.2658 68.3748C71.0266 68.8806 70.7476 69.2853 70.4287 69.5888C70.1098 69.872 69.7511 70.1148 69.3525 70.3171C68.7347 70.6206 68.2464 70.8027 67.8877 70.8634C68.3062 70.9646 68.7845 71.1669 69.3226 71.4704C69.8806 71.7537 70.3291 72.0572 70.6679 72.3809C71.0067 72.6844 71.3056 73.1194 71.5647 73.6859C71.8437 74.2322 71.9833 74.8392 71.9833 75.5068C71.9833 77.348 71.3156 78.6732 69.9803 79.4826C68.645 80.2919 66.5225 80.6965 63.6127 80.6965H54.5246L53 62.305H65.8847ZM62.8055 73.1396H61.3706L60.9221 77.6313H62.0283C62.8454 77.6313 63.5031 77.4087 64.0013 76.9636C64.4996 76.5185 64.7487 75.9317 64.7487 75.2033C64.7487 74.475 64.5594 73.9489 64.1807 73.6252C63.802 73.3015 63.3436 73.1396 62.8055 73.1396ZM62.5365 69.6191C63.234 69.6191 63.8219 69.4168 64.3003 69.0121C64.7786 68.6075 65.0177 68.0713 65.0177 67.4036C65.0177 66.0885 64.2704 65.431 62.7756 65.431H62.1179L61.6994 69.6191H62.5365Z" fill="white"/>
<path d="M78.5807 81C77.0461 81 75.7805 80.5448 74.784 79.6343C73.8075 78.7238 73.3192 77.439 73.3192 75.78C73.3192 74.1007 73.8772 72.8867 74.9933 72.1381C76.1094 71.3692 77.4546 70.9848 79.0291 70.9848C80.6036 70.9848 81.9688 71.2377 83.1247 71.7436C82.8656 70.0642 81.8193 69.2246 79.9857 69.2246C79.1487 69.2246 78.1123 69.3966 76.8767 69.7405L76.1293 67.0091C77.923 66.2605 79.7466 65.8862 81.6001 65.8862C86.9413 65.8862 89.6119 68.1927 89.6119 72.8058C89.6119 74.3839 89.4325 76.569 89.0738 79.3612L88.9243 80.6965H83.9917L83.8123 79.0273C82.457 80.3424 80.7132 81 78.5807 81ZM81.2712 77.2367C82.1681 77.2367 82.9354 76.9838 83.5731 76.478L83.3938 74.475C82.8955 74.131 82.3375 73.959 81.7196 73.959C81.1217 73.959 80.6235 74.1108 80.2249 74.4143C79.8462 74.7178 79.6569 75.0921 79.6569 75.5372C79.6569 75.9823 79.8064 76.3768 80.1053 76.7208C80.4043 77.0647 80.7929 77.2367 81.2712 77.2367Z" fill="white"/>
<path d="M104.368 76.1442C104.368 77.2974 103.99 78.2585 103.232 79.0273C102.475 79.7962 101.598 80.3222 100.602 80.6055C99.625 80.8685 98.6783 81 97.7615 81C96.8447 81 96.0376 80.9393 95.34 80.8179C94.6624 80.6965 94.0844 80.5549 93.6061 80.393C92.7292 80.0491 92.0317 79.7253 91.5135 79.4219L91.2444 79.2398L92.5598 76.478C93.7556 77.1659 94.7621 77.5099 95.5792 77.5099C96.3963 77.5099 96.8049 77.1659 96.8049 76.478C96.8049 76.134 96.5458 75.78 96.0276 75.4158C95.5094 75.0516 94.9414 74.7076 94.3236 74.3839C93.7257 74.0602 93.1677 73.5645 92.6495 72.8968C92.1313 72.2291 91.8722 71.4603 91.8722 70.5903C91.8722 69.0324 92.4502 67.8589 93.6061 67.0698C94.7621 66.2807 96.2867 65.8862 98.18 65.8862C99.1367 65.8862 100.073 65.9671 100.99 66.129C101.907 66.2908 102.595 66.4527 103.053 66.6146L103.711 66.8877L102.963 69.953C101.827 69.5281 100.861 69.3156 100.063 69.3156C99.2662 69.3156 98.8676 69.6292 98.8676 70.2564C98.8676 70.5599 99.057 70.8533 99.4356 71.1366C99.8143 71.3996 100.273 71.6626 100.811 71.9256C101.349 72.1887 101.887 72.4922 102.425 72.8361C102.963 73.1598 103.422 73.6151 103.8 74.2018C104.179 74.7683 104.368 75.4158 104.368 76.1442Z" fill="white"/>
<path d="M113.823 81C111.571 81 109.677 80.3424 108.143 79.0273C106.628 77.692 105.871 75.7395 105.871 73.17C105.871 71.5513 106.259 70.1755 107.037 69.0425C108.452 66.9383 110.644 65.8862 113.614 65.8862C115.886 65.8862 117.619 66.3515 118.815 67.2822C120.011 68.1927 120.609 69.4573 120.609 71.0759C120.609 72.3303 120.111 73.352 119.114 74.1411C118.138 74.91 116.703 75.2944 114.809 75.2944C114.032 75.2944 113.334 75.2337 112.717 75.1123L112.388 75.0516C112.487 75.78 112.796 76.3263 113.315 76.6904C113.853 77.0344 114.49 77.2064 115.228 77.2064C116.444 77.2064 117.48 76.8321 118.337 76.0835L120.19 78.3596C119.872 78.7441 119.493 79.1082 119.054 79.4522C118.616 79.7759 117.918 80.1199 116.962 80.4841C116.005 80.828 114.959 81 113.823 81ZM116.244 70.8027C116.244 70.3981 116.085 70.0642 115.766 69.8012C115.467 69.5382 115.048 69.4067 114.51 69.4067C113.972 69.4067 113.464 69.6495 112.986 70.1351C112.527 70.6206 112.298 71.1973 112.298 71.8649C112.737 72.0673 113.305 72.1684 114.002 72.1684C114.72 72.1684 115.268 72.047 115.646 71.8042C116.045 71.5412 116.244 71.2074 116.244 70.8027Z" fill="white"/>
<path d="M129.218 67.1609C129.397 66.9585 129.796 66.6955 130.413 66.3718C131.051 66.0481 131.719 65.8862 132.416 65.8862C133.134 65.8862 133.812 65.9975 134.449 66.22C135.107 66.4426 135.745 66.8068 136.363 67.3126C137 67.7982 137.509 68.5468 137.887 69.5584C138.286 70.5701 138.485 71.7739 138.485 73.17C138.485 75.7193 137.917 77.6616 136.781 78.997C135.645 80.3323 134.19 81 132.416 81C130.643 81 129.208 80.2716 128.112 78.8149C128.092 78.7744 128.072 78.7441 128.052 78.7238L127.544 80.6965H123.059L122.252 61H129.068L128.829 67.6464C128.909 67.525 129.038 67.3632 129.218 67.1609ZM130.533 69.953C129.218 69.953 128.56 71.1669 128.56 73.5948C128.56 74.4244 128.709 75.173 129.008 75.8407C129.327 76.4881 129.776 76.8118 130.354 76.8118C130.932 76.8118 131.37 76.5893 131.669 76.1442C131.968 75.699 132.147 75.2742 132.207 74.8695C132.267 74.4648 132.297 74.04 132.297 73.5948C132.297 71.1669 131.709 69.953 130.533 69.953Z" fill="white"/>
<path d="M145.231 81C143.696 81 142.431 80.5448 141.434 79.6343C140.458 78.7238 139.97 77.439 139.97 75.78C139.97 74.1007 140.528 72.8867 141.644 72.1381C142.76 71.3692 144.105 70.9848 145.68 70.9848C147.254 70.9848 148.619 71.2377 149.775 71.7436C149.516 70.0642 148.47 69.2246 146.636 69.2246C145.799 69.2246 144.763 69.3966 143.527 69.7405L142.78 67.0091C144.573 66.2605 146.397 65.8862 148.25 65.8862C153.592 65.8862 156.262 68.1927 156.262 72.8058C156.262 74.3839 156.083 76.569 155.724 79.3612L155.575 80.6965H150.642L150.463 79.0273C149.107 80.3424 147.364 81 145.231 81ZM147.922 77.2367C148.818 77.2367 149.586 76.9838 150.224 76.478L150.044 74.475C149.546 74.131 148.988 73.959 148.37 73.959C147.772 73.959 147.274 74.1108 146.875 74.4143C146.497 74.7178 146.307 75.0921 146.307 75.5372C146.307 75.9823 146.457 76.3768 146.756 76.7208C147.055 77.0647 147.443 77.2367 147.922 77.2367Z" fill="white"/>
<path d="M165.159 61L164.352 80.6965H158.851L158.044 61H165.159Z" fill="white"/>
<path d="M174.064 61L173.256 80.6965H167.756L166.949 61H174.064Z" fill="white"/>
<path d="M177.198 80.6965L175.703 62.305H186.884L190.262 71.3187L193.64 62.305H203.805L202.31 80.6965H196.181L195.105 69.7405L190.98 80.6965H186.137L182.011 69.7405L181.114 80.6965H177.198Z" fill="white"/>
<path d="M213.258 81C211.006 81 209.113 80.3424 207.578 79.0273C206.064 77.692 205.306 75.7395 205.306 73.17C205.306 71.5513 205.695 70.1755 206.472 69.0425C207.887 66.9383 210.079 65.8862 213.049 65.8862C215.321 65.8862 217.055 66.3515 218.251 67.2822C219.447 68.1927 220.044 69.4573 220.044 71.0759C220.044 72.3303 219.546 73.352 218.55 74.1411C217.573 74.91 216.138 75.2944 214.245 75.2944C213.468 75.2944 212.77 75.2337 212.152 75.1123L211.823 75.0516C211.923 75.78 212.232 76.3263 212.75 76.6904C213.288 77.0344 213.926 77.2064 214.663 77.2064C215.879 77.2064 216.915 76.8321 217.772 76.0835L219.626 78.3596C219.307 78.7441 218.928 79.1082 218.49 79.4522C218.051 79.7759 217.354 80.1199 216.397 80.4841C215.441 80.828 214.394 81 213.258 81ZM215.68 70.8027C215.68 70.3981 215.52 70.0642 215.201 69.8012C214.902 69.5382 214.484 69.4067 213.946 69.4067C213.408 69.4067 212.9 69.6495 212.421 70.1351C211.963 70.6206 211.734 71.1973 211.734 71.8649C212.172 72.0673 212.74 72.1684 213.438 72.1684C214.155 72.1684 214.703 72.047 215.082 71.8042C215.48 71.5412 215.68 71.2074 215.68 70.8027Z" fill="white"/>
<path d="M229.61 75.2944C229.59 76.4679 229.998 77.0546 230.836 77.0546C231.075 77.0546 231.364 76.9434 231.702 76.7208L232.33 79.6646C232.211 79.7658 232.041 79.8973 231.822 80.0592C231.623 80.2008 231.174 80.393 230.477 80.6358C229.799 80.8786 229.092 81 228.354 81C226.999 81 225.893 80.5346 225.036 79.6039C224.179 78.653 223.721 77.4492 223.661 75.9924L223.392 70.2564H221.09L221.449 66.3111H223.242L223.123 63.3369L230.208 61.8801L229.998 66.3111H231.732L232.091 70.2564H229.819L229.61 75.2944Z" fill="white"/>
<path d="M246.112 65.8862C247.248 65.8862 248.175 66.2301 248.893 66.9181C249.61 67.5857 250.088 68.395 250.327 69.346C250.587 70.2969 250.716 71.5109 250.716 72.9879C250.716 74.4648 250.487 77.0344 250.029 80.6965H244.797L244.139 73.6555C244.02 72.4416 243.86 71.6323 243.661 71.2276C243.462 70.823 243.123 70.6206 242.644 70.6206C241.469 70.6206 240.831 71.6424 240.731 73.6859L240.432 80.6965H234.932L234.124 61H241.239L240.94 68.8907C241.578 67.5959 242.635 66.6955 244.109 66.1897C244.727 65.9874 245.395 65.8862 246.112 65.8862Z" fill="white"/>
<path d="M254.52 79.2094C253.085 77.9954 252.367 76.0733 252.367 73.4431C252.367 70.8128 253.085 68.9009 254.52 67.7071C255.975 66.4932 257.908 65.8862 260.319 65.8862C262.731 65.8862 264.654 66.4932 266.089 67.7071C267.544 68.9009 268.271 70.8128 268.271 73.4431C268.271 76.0733 267.544 77.9954 266.089 79.2094C264.654 80.4031 262.731 81 260.319 81C257.908 81 255.975 80.4031 254.52 79.2094ZM259.064 70.0137C258.825 70.7016 258.705 71.8447 258.705 73.4431C258.705 75.0415 258.825 76.1947 259.064 76.9029C259.303 77.5908 259.721 77.9347 260.319 77.9347C260.917 77.9347 261.336 77.5908 261.575 76.9029C261.814 76.1947 261.934 75.0415 261.934 73.4431C261.934 71.8447 261.814 70.7016 261.575 70.0137C261.336 69.3055 260.917 68.9514 260.319 68.9514C259.721 68.9514 259.303 69.3055 259.064 70.0137Z" fill="white"/>
<path d="M269.767 73.17C269.767 71.7739 269.956 70.5701 270.335 69.5584C270.734 68.5468 271.252 67.7881 271.89 67.2822C273.065 66.3515 274.371 65.8862 275.806 65.8862C276.523 65.8862 277.181 66.0379 277.779 66.3414C278.397 66.6247 278.825 66.9181 279.064 67.2215L279.423 67.6464L279.184 61H286L285.193 80.6965H280.709L280.2 78.7238C279.005 80.221 277.53 80.9697 275.776 80.9697C274.042 80.9899 272.607 80.3323 271.471 78.997C270.335 77.6616 269.767 75.7193 269.767 73.17ZM277.719 69.953C276.543 69.953 275.955 71.1669 275.955 73.5948C275.955 74.04 275.985 74.4648 276.045 74.8695C276.105 75.2742 276.284 75.699 276.583 76.1442C276.882 76.5893 277.321 76.8118 277.898 76.8118C278.476 76.8118 278.915 76.4881 279.214 75.8407C279.533 75.173 279.692 74.4244 279.692 73.5948C279.692 71.1669 279.035 69.953 277.719 69.953Z" fill="white"/>
<path d="M65.8847 62.305C69.7312 62.305 71.6544 63.7516 71.6544 66.6449C71.6544 67.2721 71.5249 67.8488 71.2658 68.3748C71.0266 68.8806 70.7476 69.2853 70.4287 69.5888C70.1098 69.872 69.7511 70.1148 69.3525 70.3171C68.7347 70.6206 68.2464 70.8027 67.8877 70.8634C68.3062 70.9646 68.7845 71.1669 69.3226 71.4704C69.8806 71.7537 70.3291 72.0572 70.6679 72.3809C71.0067 72.6844 71.3056 73.1194 71.5647 73.6859C71.8437 74.2322 71.9833 74.8392 71.9833 75.5068C71.9833 77.348 71.3156 78.6732 69.9803 79.4826C68.645 80.2919 66.5225 80.6965 63.6127 80.6965H54.5246L53 62.305H65.8847ZM62.8055 73.1396H61.3706L60.9221 77.6313H62.0283C62.8454 77.6313 63.5031 77.4087 64.0013 76.9636C64.4996 76.5185 64.7487 75.9317 64.7487 75.2033C64.7487 74.475 64.5594 73.9489 64.1807 73.6252C63.802 73.3015 63.3436 73.1396 62.8055 73.1396ZM62.5365 69.6191C63.234 69.6191 63.8219 69.4168 64.3003 69.0121C64.7786 68.6075 65.0177 68.0713 65.0177 67.4036C65.0177 66.0885 64.2704 65.431 62.7756 65.431H62.1179L61.6994 69.6191H62.5365Z" stroke="black" stroke-width="2" mask="url(#path-19-outside-2)"/>
<path d="M78.5807 81C77.0461 81 75.7805 80.5448 74.784 79.6343C73.8075 78.7238 73.3192 77.439 73.3192 75.78C73.3192 74.1007 73.8772 72.8867 74.9933 72.1381C76.1094 71.3692 77.4546 70.9848 79.0291 70.9848C80.6036 70.9848 81.9688 71.2377 83.1247 71.7436C82.8656 70.0642 81.8193 69.2246 79.9857 69.2246C79.1487 69.2246 78.1123 69.3966 76.8767 69.7405L76.1293 67.0091C77.923 66.2605 79.7466 65.8862 81.6001 65.8862C86.9413 65.8862 89.6119 68.1927 89.6119 72.8058C89.6119 74.3839 89.4325 76.569 89.0738 79.3612L88.9243 80.6965H83.9917L83.8123 79.0273C82.457 80.3424 80.7132 81 78.5807 81ZM81.2712 77.2367C82.1681 77.2367 82.9354 76.9838 83.5731 76.478L83.3938 74.475C82.8955 74.131 82.3375 73.959 81.7196 73.959C81.1217 73.959 80.6235 74.1108 80.2249 74.4143C79.8462 74.7178 79.6569 75.0921 79.6569 75.5372C79.6569 75.9823 79.8064 76.3768 80.1053 76.7208C80.4043 77.0647 80.7929 77.2367 81.2712 77.2367Z" stroke="black" stroke-width="2" mask="url(#path-19-outside-2)"/>
<path d="M104.368 76.1442C104.368 77.2974 103.99 78.2585 103.232 79.0273C102.475 79.7962 101.598 80.3222 100.602 80.6055C99.625 80.8685 98.6783 81 97.7615 81C96.8447 81 96.0376 80.9393 95.34 80.8179C94.6624 80.6965 94.0844 80.5549 93.6061 80.393C92.7292 80.0491 92.0317 79.7253 91.5135 79.4219L91.2444 79.2398L92.5598 76.478C93.7556 77.1659 94.7621 77.5099 95.5792 77.5099C96.3963 77.5099 96.8049 77.1659 96.8049 76.478C96.8049 76.134 96.5458 75.78 96.0276 75.4158C95.5094 75.0516 94.9414 74.7076 94.3236 74.3839C93.7257 74.0602 93.1677 73.5645 92.6495 72.8968C92.1313 72.2291 91.8722 71.4603 91.8722 70.5903C91.8722 69.0324 92.4502 67.8589 93.6061 67.0698C94.7621 66.2807 96.2867 65.8862 98.18 65.8862C99.1367 65.8862 100.073 65.9671 100.99 66.129C101.907 66.2908 102.595 66.4527 103.053 66.6146L103.711 66.8877L102.963 69.953C101.827 69.5281 100.861 69.3156 100.063 69.3156C99.2662 69.3156 98.8676 69.6292 98.8676 70.2564C98.8676 70.5599 99.057 70.8533 99.4356 71.1366C99.8143 71.3996 100.273 71.6626 100.811 71.9256C101.349 72.1887 101.887 72.4922 102.425 72.8361C102.963 73.1598 103.422 73.6151 103.8 74.2018C104.179 74.7683 104.368 75.4158 104.368 76.1442Z" stroke="black" stroke-width="2" mask="url(#path-19-outside-2)"/>
<path d="M113.823 81C111.571 81 109.677 80.3424 108.143 79.0273C106.628 77.692 105.871 75.7395 105.871 73.17C105.871 71.5513 106.259 70.1755 107.037 69.0425C108.452 66.9383 110.644 65.8862 113.614 65.8862C115.886 65.8862 117.619 66.3515 118.815 67.2822C120.011 68.1927 120.609 69.4573 120.609 71.0759C120.609 72.3303 120.111 73.352 119.114 74.1411C118.138 74.91 116.703 75.2944 114.809 75.2944C114.032 75.2944 113.334 75.2337 112.717 75.1123L112.388 75.0516C112.487 75.78 112.796 76.3263 113.315 76.6904C113.853 77.0344 114.49 77.2064 115.228 77.2064C116.444 77.2064 117.48 76.8321 118.337 76.0835L120.19 78.3596C119.872 78.7441 119.493 79.1082 119.054 79.4522C118.616 79.7759 117.918 80.1199 116.962 80.4841C116.005 80.828 114.959 81 113.823 81ZM116.244 70.8027C116.244 70.3981 116.085 70.0642 115.766 69.8012C115.467 69.5382 115.048 69.4067 114.51 69.4067C113.972 69.4067 113.464 69.6495 112.986 70.1351C112.527 70.6206 112.298 71.1973 112.298 71.8649C112.737 72.0673 113.305 72.1684 114.002 72.1684C114.72 72.1684 115.268 72.047 115.646 71.8042C116.045 71.5412 116.244 71.2074 116.244 70.8027Z" stroke="black" stroke-width="2" mask="url(#path-19-outside-2)"/>
<path d="M129.218 67.1609C129.397 66.9585 129.796 66.6955 130.413 66.3718C131.051 66.0481 131.719 65.8862 132.416 65.8862C133.134 65.8862 133.812 65.9975 134.449 66.22C135.107 66.4426 135.745 66.8068 136.363 67.3126C137 67.7982 137.509 68.5468 137.887 69.5584C138.286 70.5701 138.485 71.7739 138.485 73.17C138.485 75.7193 137.917 77.6616 136.781 78.997C135.645 80.3323 134.19 81 132.416 81C130.643 81 129.208 80.2716 128.112 78.8149C128.092 78.7744 128.072 78.7441 128.052 78.7238L127.544 80.6965H123.059L122.252 61H129.068L128.829 67.6464C128.909 67.525 129.038 67.3632 129.218 67.1609ZM130.533 69.953C129.218 69.953 128.56 71.1669 128.56 73.5948C128.56 74.4244 128.709 75.173 129.008 75.8407C129.327 76.4881 129.776 76.8118 130.354 76.8118C130.932 76.8118 131.37 76.5893 131.669 76.1442C131.968 75.699 132.147 75.2742 132.207 74.8695C132.267 74.4648 132.297 74.04 132.297 73.5948C132.297 71.1669 131.709 69.953 130.533 69.953Z" stroke="black" stroke-width="2" mask="url(#path-19-outside-2)"/>
<path d="M145.231 81C143.696 81 142.431 80.5448 141.434 79.6343C140.458 78.7238 139.97 77.439 139.97 75.78C139.97 74.1007 140.528 72.8867 141.644 72.1381C142.76 71.3692 144.105 70.9848 145.68 70.9848C147.254 70.9848 148.619 71.2377 149.775 71.7436C149.516 70.0642 148.47 69.2246 146.636 69.2246C145.799 69.2246 144.763 69.3966 143.527 69.7405L142.78 67.0091C144.573 66.2605 146.397 65.8862 148.25 65.8862C153.592 65.8862 156.262 68.1927 156.262 72.8058C156.262 74.3839 156.083 76.569 155.724 79.3612L155.575 80.6965H150.642L150.463 79.0273C149.107 80.3424 147.364 81 145.231 81ZM147.922 77.2367C148.818 77.2367 149.586 76.9838 150.224 76.478L150.044 74.475C149.546 74.131 148.988 73.959 148.37 73.959C147.772 73.959 147.274 74.1108 146.875 74.4143C146.497 74.7178 146.307 75.0921 146.307 75.5372C146.307 75.9823 146.457 76.3768 146.756 76.7208C147.055 77.0647 147.443 77.2367 147.922 77.2367Z" stroke="black" stroke-width="2" mask="url(#path-19-outside-2)"/>
<path d="M165.159 61L164.352 80.6965H158.851L158.044 61H165.159Z" stroke="black" stroke-width="2" mask="url(#path-19-outside-2)"/>
<path d="M174.064 61L173.256 80.6965H167.756L166.949 61H174.064Z" stroke="black" stroke-width="2" mask="url(#path-19-outside-2)"/>
<path d="M177.198 80.6965L175.703 62.305H186.884L190.262 71.3187L193.64 62.305H203.805L202.31 80.6965H196.181L195.105 69.7405L190.98 80.6965H186.137L182.011 69.7405L181.114 80.6965H177.198Z" stroke="black" stroke-width="2" mask="url(#path-19-outside-2)"/>
<path d="M213.258 81C211.006 81 209.113 80.3424 207.578 79.0273C206.064 77.692 205.306 75.7395 205.306 73.17C205.306 71.5513 205.695 70.1755 206.472 69.0425C207.887 66.9383 210.079 65.8862 213.049 65.8862C215.321 65.8862 217.055 66.3515 218.251 67.2822C219.447 68.1927 220.044 69.4573 220.044 71.0759C220.044 72.3303 219.546 73.352 218.55 74.1411C217.573 74.91 216.138 75.2944 214.245 75.2944C213.468 75.2944 212.77 75.2337 212.152 75.1123L211.823 75.0516C211.923 75.78 212.232 76.3263 212.75 76.6904C213.288 77.0344 213.926 77.2064 214.663 77.2064C215.879 77.2064 216.915 76.8321 217.772 76.0835L219.626 78.3596C219.307 78.7441 218.928 79.1082 218.49 79.4522C218.051 79.7759 217.354 80.1199 216.397 80.4841C215.441 80.828 214.394 81 213.258 81ZM215.68 70.8027C215.68 70.3981 215.52 70.0642 215.201 69.8012C214.902 69.5382 214.484 69.4067 213.946 69.4067C213.408 69.4067 212.9 69.6495 212.421 70.1351C211.963 70.6206 211.734 71.1973 211.734 71.8649C212.172 72.0673 212.74 72.1684 213.438 72.1684C214.155 72.1684 214.703 72.047 215.082 71.8042C215.48 71.5412 215.68 71.2074 215.68 70.8027Z" stroke="black" stroke-width="2" mask="url(#path-19-outside-2)"/>
<path d="M229.61 75.2944C229.59 76.4679 229.998 77.0546 230.836 77.0546C231.075 77.0546 231.364 76.9434 231.702 76.7208L232.33 79.6646C232.211 79.7658 232.041 79.8973 231.822 80.0592C231.623 80.2008 231.174 80.393 230.477 80.6358C229.799 80.8786 229.092 81 228.354 81C226.999 81 225.893 80.5346 225.036 79.6039C224.179 78.653 223.721 77.4492 223.661 75.9924L223.392 70.2564H221.09L221.449 66.3111H223.242L223.123 63.3369L230.208 61.8801L229.998 66.3111H231.732L232.091 70.2564H229.819L229.61 75.2944Z" stroke="black" stroke-width="2" mask="url(#path-19-outside-2)"/>
<path d="M246.112 65.8862C247.248 65.8862 248.175 66.2301 248.893 66.9181C249.61 67.5857 250.088 68.395 250.327 69.346C250.587 70.2969 250.716 71.5109 250.716 72.9879C250.716 74.4648 250.487 77.0344 250.029 80.6965H244.797L244.139 73.6555C244.02 72.4416 243.86 71.6323 243.661 71.2276C243.462 70.823 243.123 70.6206 242.644 70.6206C241.469 70.6206 240.831 71.6424 240.731 73.6859L240.432 80.6965H234.932L234.124 61H241.239L240.94 68.8907C241.578 67.5959 242.635 66.6955 244.109 66.1897C244.727 65.9874 245.395 65.8862 246.112 65.8862Z" stroke="black" stroke-width="2" mask="url(#path-19-outside-2)"/>
<path d="M254.52 79.2094C253.085 77.9954 252.367 76.0733 252.367 73.4431C252.367 70.8128 253.085 68.9009 254.52 67.7071C255.975 66.4932 257.908 65.8862 260.319 65.8862C262.731 65.8862 264.654 66.4932 266.089 67.7071C267.544 68.9009 268.271 70.8128 268.271 73.4431C268.271 76.0733 267.544 77.9954 266.089 79.2094C264.654 80.4031 262.731 81 260.319 81C257.908 81 255.975 80.4031 254.52 79.2094ZM259.064 70.0137C258.825 70.7016 258.705 71.8447 258.705 73.4431C258.705 75.0415 258.825 76.1947 259.064 76.9029C259.303 77.5908 259.721 77.9347 260.319 77.9347C260.917 77.9347 261.336 77.5908 261.575 76.9029C261.814 76.1947 261.934 75.0415 261.934 73.4431C261.934 71.8447 261.814 70.7016 261.575 70.0137C261.336 69.3055 260.917 68.9514 260.319 68.9514C259.721 68.9514 259.303 69.3055 259.064 70.0137Z" stroke="black" stroke-width="2" mask="url(#path-19-outside-2)"/>
<path d="M269.767 73.17C269.767 71.7739 269.956 70.5701 270.335 69.5584C270.734 68.5468 271.252 67.7881 271.89 67.2822C273.065 66.3515 274.371 65.8862 275.806 65.8862C276.523 65.8862 277.181 66.0379 277.779 66.3414C278.397 66.6247 278.825 66.9181 279.064 67.2215L279.423 67.6464L279.184 61H286L285.193 80.6965H280.709L280.2 78.7238C279.005 80.221 277.53 80.9697 275.776 80.9697C274.042 80.9899 272.607 80.3323 271.471 78.997C270.335 77.6616 269.767 75.7193 269.767 73.17ZM277.719 69.953C276.543 69.953 275.955 71.1669 275.955 73.5948C275.955 74.04 275.985 74.4648 276.045 74.8695C276.105 75.2742 276.284 75.699 276.583 76.1442C276.882 76.5893 277.321 76.8118 277.898 76.8118C278.476 76.8118 278.915 76.4881 279.214 75.8407C279.533 75.173 279.692 74.4244 279.692 73.5948C279.692 71.1669 279.035 69.953 277.719 69.953Z" stroke="black" stroke-width="2" mask="url(#path-19-outside-2)"/>
<path d="M159.647 38.3415L159.294 38.6937L159.645 39.0478L164.062 43.5L159.645 47.9522L159.294 48.3063L159.647 48.6585L163.301 52.3013L163.652 52.6513L164.005 52.3033L168.472 47.8997L172.94 52.3541L173.293 52.706L173.646 52.3541L177.353 48.6585L177.71 48.3024L177.351 47.9483L172.84 43.5L177.351 39.0517L177.71 38.6976L177.353 38.3415L173.646 34.6459L173.291 34.2921L172.938 34.6478L168.472 39.1492L164.007 34.6987L163.654 34.3468L163.301 34.6987L159.647 38.3415Z" fill="white" stroke="black"/>
<path d="M166.211 98V97.5H165.711H160H159.5V98V119V119.5H160H165.711H166.211V119V98ZM173.289 97.5H172.789V98V119V119.5H173.289H179H179.5V119V98V97.5H179H173.289Z" fill="white" stroke="black"/>
<path d="M1.53491 139.722L7.17728e-06 142.182L9.04282 147.825L10.5777 145.366L1.53491 139.722ZM3.57132 136.459L12.6141 142.103L14.149 139.644L5.10622 134L3.57132 136.459Z" fill="#E1153A"/>
<path d="M329.614 139.722L331.149 142.182L322.106 147.825L320.571 145.366L329.614 139.722ZM327.578 136.459L318.535 142.103L317 139.644L326.043 134L327.578 136.459Z" fill="#E1153A"/>
</svg>
