<svg width="333" height="197" viewBox="0 0 333 197" fill="none" xmlns="http://www.w3.org/2000/svg">
<path d="M52.6157 147.176C62.9496 147.176 68.1165 150.952 68.1165 158.503C68.1165 160.14 67.7685 161.645 67.0724 163.018C66.4299 164.338 65.6803 165.394 64.8236 166.186C63.9669 166.925 63.0032 167.559 61.9323 168.087C60.2724 168.879 58.9606 169.354 57.9968 169.513C59.1213 169.777 60.4063 170.305 61.852 171.097C63.3512 171.836 64.5559 172.628 65.4661 173.473C66.3764 174.265 67.1795 175.4 67.8756 176.879C68.6252 178.305 69 179.889 69 181.631C69 186.437 67.2063 189.895 63.6189 192.008C60.0315 194.12 54.3291 195.176 46.5118 195.176H22.0961L18 147.176H52.6157ZM44.3433 175.453H40.4882L39.2835 187.176H42.2551C44.4504 187.176 46.2173 186.595 47.5559 185.433C48.8945 184.272 49.5638 182.74 49.5638 180.839C49.5638 178.938 49.0551 177.565 48.0378 176.721C47.0205 175.876 45.789 175.453 44.3433 175.453ZM43.6205 166.265C45.4945 166.265 47.074 165.737 48.3591 164.681C49.6441 163.625 50.2866 162.226 50.2866 160.483C50.2866 157.051 48.2787 155.334 44.263 155.334H42.4961L41.3717 166.265H43.6205Z" fill="#364E8A"/>
<path d="M105.937 147.176C116.068 147.176 121.134 150.952 121.134 158.503C121.134 160.14 120.793 161.645 120.11 163.018C119.48 164.338 118.745 165.394 117.906 166.186C117.066 166.925 116.121 167.559 115.071 168.087C113.444 168.879 112.157 169.354 111.213 169.513C112.315 169.777 113.575 170.305 114.992 171.097C116.462 171.836 117.643 172.628 118.535 173.473C119.428 174.265 120.215 175.4 120.898 176.879C121.633 178.305 122 179.889 122 181.631C122 186.437 120.241 189.895 116.724 192.008C113.207 194.12 107.617 195.176 99.9528 195.176H76.0157L72 147.176H105.937ZM97.8268 175.453H94.0472L92.8661 187.176H95.7795C97.9318 187.176 99.664 186.595 100.976 185.433C102.289 184.272 102.945 182.74 102.945 180.839C102.945 178.938 102.446 177.565 101.449 176.721C100.451 175.876 99.2441 175.453 97.8268 175.453ZM97.1181 166.265C98.9554 166.265 100.504 165.737 101.764 164.681C103.024 163.625 103.654 162.226 103.654 160.483C103.654 157.051 101.685 155.334 97.748 155.334H96.0157L94.9134 166.265H97.1181Z" fill="#364E8A"/>
<path d="M140.76 194.176L135 136H165.24L160.92 179.296L178.296 178.336L172.824 194.176H140.76Z" fill="#E1153A"/>
<path fill-rule="evenodd" clip-rule="evenodd" d="M326.681 183.117C323.19 183.118 320.361 185.946 320.361 189.437C320.361 192.927 323.19 195.756 326.681 195.756C330.171 195.756 333 192.927 333 189.437C333 185.946 330.171 183.118 326.681 183.117ZM326.681 194.875C328.184 194.874 329.54 194.267 330.526 193.282C331.51 192.296 332.118 190.94 332.118 189.437C332.118 188.192 331.7 187.049 330.998 186.132C330.994 186.134 330.549 185.611 330.545 185.612C330.538 185.606 330.532 185.598 330.526 185.592C329.54 184.607 328.184 183.999 326.681 183.999C325.178 183.999 323.821 184.607 322.835 185.592C321.851 186.577 321.243 187.934 321.243 189.437C321.243 190.681 321.661 191.824 322.363 192.741C322.37 192.747 322.829 193.275 322.836 193.282C323.821 194.267 325.178 194.874 326.681 194.875Z" fill="#364E8A"/>
<path d="M324.562 191.097C324.404 191.005 324.202 191.06 324.11 191.218C324.028 191.36 323.936 191.496 323.836 191.624C323.724 191.769 323.75 191.976 323.894 192.089C324.038 192.201 324.246 192.175 324.358 192.031C324.477 191.878 324.585 191.717 324.683 191.549C324.774 191.39 324.72 191.188 324.562 191.097Z" fill="#E1153A"/>
<path d="M323.605 186.093C323.452 185.975 323.291 185.867 323.122 185.77C322.964 185.679 322.762 185.733 322.671 185.892C322.58 186.05 322.635 186.252 322.793 186.343C322.935 186.425 323.072 186.516 323.201 186.616C323.345 186.728 323.553 186.701 323.665 186.557C323.776 186.412 323.75 186.205 323.605 186.093Z" fill="#E1153A"/>
<path d="M329.76 185.97C329.913 185.852 330.075 185.744 330.244 185.647C330.402 185.556 330.604 185.611 330.695 185.769C330.786 185.928 330.731 186.129 330.573 186.22C330.43 186.302 330.294 186.393 330.165 186.493C330.02 186.605 329.813 186.578 329.701 186.434C329.589 186.29 329.616 186.082 329.76 185.97Z" fill="#E1153A"/>
<path d="M323.568 192.931C323.415 193.05 323.254 193.158 323.085 193.255C322.926 193.346 322.724 193.291 322.633 193.132C322.543 192.974 322.597 192.772 322.756 192.681C322.898 192.599 323.034 192.508 323.163 192.408C323.308 192.296 323.516 192.323 323.627 192.467C323.739 192.612 323.713 192.819 323.568 192.931Z" fill="#E1153A"/>
<path d="M324.32 188.082C324.389 188.251 324.582 188.331 324.751 188.262C324.92 188.192 325.001 187.999 324.931 187.83C324.857 187.65 324.771 187.476 324.674 187.309C324.581 187.152 324.379 187.098 324.221 187.19C324.064 187.283 324.01 187.485 324.102 187.643C324.184 187.783 324.257 187.93 324.32 188.082Z" fill="#E1153A"/>
<path d="M324.915 189.089C324.733 189.09 324.585 189.238 324.586 189.421V189.437C324.586 189.603 324.575 189.767 324.553 189.926C324.528 190.107 324.654 190.274 324.835 190.299C325.016 190.324 325.183 190.197 325.208 190.016C325.234 189.827 325.247 189.633 325.247 189.437V189.418C325.247 189.236 325.098 189.088 324.915 189.089Z" fill="#E1153A"/>
<path d="M328.775 189.445V189.437C328.775 189.273 328.786 189.113 328.807 188.955C328.832 188.774 328.705 188.607 328.524 188.583C328.343 188.559 328.176 188.685 328.152 188.866C328.126 189.053 328.113 189.243 328.113 189.437V189.446C328.114 189.629 328.262 189.776 328.445 189.776C328.627 189.776 328.775 189.627 328.775 189.445Z" fill="#E1153A"/>
<path d="M329.038 190.785C328.969 190.616 328.776 190.534 328.607 190.604C328.438 190.673 328.357 190.866 328.426 191.035C328.5 191.215 328.586 191.389 328.683 191.556C328.774 191.714 328.977 191.768 329.135 191.676C329.293 191.584 329.346 191.382 329.255 191.224C329.173 191.083 329.1 190.937 329.038 190.785Z" fill="#E1153A"/>
<path d="M330.561 192.526V192.527C330.419 192.445 330.283 192.353 330.154 192.253C330.01 192.141 329.802 192.167 329.69 192.311C329.578 192.455 329.604 192.663 329.748 192.775C329.901 192.894 330.062 193.002 330.231 193.1C330.389 193.191 330.591 193.136 330.683 192.978C330.774 192.82 330.719 192.618 330.561 192.526Z" fill="#E1153A"/>
<path d="M329.462 186.791C329.317 186.679 329.109 186.706 328.998 186.85C328.879 187.003 328.771 187.164 328.674 187.333C328.583 187.491 328.637 187.693 328.795 187.785C328.954 187.876 329.156 187.821 329.247 187.663C329.329 187.521 329.42 187.384 329.52 187.255C329.632 187.111 329.606 186.903 329.462 186.791Z" fill="#E1153A"/>
<path d="M196.209 195.176C192.065 195.176 188.647 194.001 185.956 191.652C183.319 189.303 182 185.987 182 181.706C182 177.373 183.507 174.24 186.521 172.309C189.535 170.325 193.168 169.333 197.42 169.333C201.672 169.333 205.359 169.985 208.481 171.29C207.781 166.957 204.955 164.79 200.004 164.79C197.743 164.79 194.944 165.234 191.607 166.122L189.589 159.074C194.433 157.142 199.358 156.176 204.363 156.176C218.788 156.176 226 162.128 226 174.031C226 178.104 225.516 183.742 224.547 190.947L224.143 194.393H210.822L210.338 190.086C206.678 193.479 201.968 195.176 196.209 195.176ZM203.475 185.465C205.897 185.465 207.969 184.813 209.692 183.507L209.207 178.339C207.862 177.451 206.355 177.007 204.686 177.007C203.072 177.007 201.726 177.399 200.65 178.182C199.627 178.965 199.116 179.931 199.116 181.08C199.116 182.228 199.519 183.246 200.327 184.134C201.134 185.021 202.183 185.465 203.475 185.465Z" fill="#364E8A"/>
<path d="M247.451 160.194C247.926 159.668 248.982 158.984 250.619 158.143C252.308 157.301 254.077 156.88 255.924 156.88C257.825 156.88 259.62 157.169 261.309 157.748C263.052 158.327 264.741 159.274 266.378 160.589C268.067 161.851 269.413 163.798 270.416 166.428C271.472 169.058 272 172.188 272 175.818C272 182.446 270.495 187.496 267.486 190.968C264.477 194.44 260.623 196.176 255.924 196.176C251.226 196.176 247.425 194.282 244.521 190.495C244.468 190.389 244.416 190.311 244.363 190.258L243.017 195.387H231.138L229 144.176H247.055L246.422 161.457C246.633 161.141 246.976 160.72 247.451 160.194ZM250.936 167.454C247.451 167.454 245.709 170.61 245.709 176.923C245.709 179.079 246.105 181.026 246.897 182.762C247.742 184.445 248.929 185.287 250.46 185.287C251.991 185.287 253.153 184.708 253.945 183.551C254.737 182.394 255.212 181.289 255.37 180.237C255.529 179.185 255.608 178.08 255.608 176.923C255.608 170.61 254.05 167.454 250.936 167.454Z" fill="#364E8A"/>
<path d="M281.184 190.556C277.395 187.423 275.5 182.463 275.5 175.676C275.5 168.889 277.395 163.955 281.184 160.875C285.026 157.742 290.132 156.176 296.5 156.176C302.868 156.176 307.947 157.742 311.737 160.875C315.579 163.955 317.5 168.889 317.5 175.676C317.5 182.463 315.579 187.423 311.737 190.556C307.947 193.636 302.868 195.176 296.5 195.176C290.132 195.176 285.026 193.636 281.184 190.556ZM293.184 166.827C292.553 168.602 292.237 171.552 292.237 175.676C292.237 179.801 292.553 182.776 293.184 184.604C293.816 186.379 294.921 187.266 296.5 187.266C298.079 187.266 299.184 186.379 299.816 184.604C300.447 182.776 300.763 179.801 300.763 175.676C300.763 171.552 300.447 168.602 299.816 166.827C299.184 164.999 298.079 164.086 296.5 164.086C294.921 164.086 293.816 164.999 293.184 166.827Z" fill="#364E8A"/>
<path d="M106.001 1.28897C109.882 1.28897 111.823 2.71783 111.823 5.57554C111.823 6.19504 111.692 6.76459 111.431 7.28417C111.189 7.78377 110.908 8.18345 110.586 8.48321C110.264 8.76299 109.902 9.0028 109.5 9.20264C108.877 9.5024 108.384 9.68225 108.022 9.74221C108.444 9.84213 108.927 10.042 109.47 10.3417C110.033 10.6215 110.486 10.9213 110.828 11.241C111.169 11.5408 111.471 11.9704 111.732 12.53C112.014 13.0695 112.155 13.6691 112.155 14.3285C112.155 16.1471 111.481 17.456 110.134 18.2554C108.786 19.0548 106.645 19.4544 103.709 19.4544H94.5384L93 1.28897H106.001ZM102.894 11.9904H101.446L100.994 16.4269H102.11C102.934 16.4269 103.598 16.207 104.101 15.7674C104.603 15.3277 104.855 14.7482 104.855 14.0288C104.855 13.3094 104.664 12.7898 104.282 12.47C103.9 12.1503 103.437 11.9904 102.894 11.9904ZM102.623 8.51319C103.326 8.51319 103.92 8.31335 104.402 7.91367C104.885 7.51399 105.126 6.98441 105.126 6.32494C105.126 5.02598 104.372 4.3765 102.864 4.3765H102.2L101.778 8.51319H102.623Z" fill="#292929"/>
<path d="M115.675 17.9856C114.227 16.7866 113.503 14.8881 113.503 12.2902C113.503 9.69225 114.227 7.80376 115.675 6.6247C117.143 5.42566 119.093 4.82614 121.527 4.82614C123.96 4.82614 125.901 5.42566 127.349 6.6247C128.817 7.80376 129.551 9.69225 129.551 12.2902C129.551 14.8881 128.817 16.7866 127.349 17.9856C125.901 19.1647 123.96 19.7542 121.527 19.7542C119.093 19.7542 117.143 19.1647 115.675 17.9856ZM120.26 8.90288C120.018 9.58233 119.898 10.7114 119.898 12.2902C119.898 13.8689 120.018 15.008 120.26 15.7074C120.501 16.3869 120.923 16.7266 121.527 16.7266C122.13 16.7266 122.552 16.3869 122.794 15.7074C123.035 15.008 123.156 13.8689 123.156 12.2902C123.156 10.7114 123.035 9.58233 122.794 8.90288C122.552 8.20344 122.13 7.85372 121.527 7.85372C120.923 7.85372 120.501 8.20344 120.26 8.90288Z" fill="#292929"/>
<path d="M131.06 12.0204C131.06 10.6415 131.251 9.45244 131.633 8.45324C132.035 7.45404 132.558 6.70464 133.201 6.20504C134.388 5.28577 135.705 4.82614 137.153 4.82614C137.877 4.82614 138.541 4.97602 139.144 5.27578C139.767 5.55556 140.2 5.84532 140.441 6.14508L140.803 6.56475L140.562 0H147.439L146.625 19.4544H142.1L141.587 17.506C140.381 18.9848 138.893 19.7242 137.123 19.7242C135.373 19.7442 133.925 19.0947 132.779 17.7758C131.633 16.4568 131.06 14.5384 131.06 12.0204ZM139.084 8.84293C137.897 8.84293 137.304 10.042 137.304 12.44C137.304 12.8797 137.334 13.2994 137.394 13.699C137.455 14.0987 137.636 14.5184 137.937 14.958C138.239 15.3977 138.681 15.6175 139.265 15.6175C139.848 15.6175 140.29 15.2978 140.592 14.6583C140.914 13.9988 141.075 13.2594 141.075 12.44C141.075 10.042 140.411 8.84293 139.084 8.84293Z" fill="#292929"/>
<path d="M159.706 16.1271V15.8873C159.646 16.227 159.485 16.6067 159.224 17.0264C158.982 17.4261 158.711 17.7658 158.409 18.0456C158.107 18.3253 157.675 18.5751 157.112 18.795C156.569 19.0148 155.845 19.1247 154.94 19.1247C154.035 19.1247 153.18 18.9249 152.376 18.5252C151.572 18.1055 150.948 17.536 150.506 16.8165C149.661 15.4776 149.239 14.0088 149.239 12.4101C149.239 10.7914 149.47 8.40328 149.933 5.2458H155.785V11.7206C155.785 13.9189 156.438 15.018 157.745 15.018C158.329 15.018 158.761 14.7582 159.043 14.2386C159.324 13.719 159.465 13.0596 159.465 12.2602C159.465 12.1603 159.465 12.0504 159.465 11.9305L159.193 5.2458H165.98L165.558 14.4484C165.498 15.7474 165.397 16.8565 165.257 17.7758C165.136 18.695 164.895 19.6343 164.533 20.5935C164.191 21.5727 163.738 22.3621 163.175 22.9616C161.868 24.3205 159.927 25 157.353 25C155.543 25 153.844 24.4404 152.255 23.3213L151.984 23.1415L153.251 20.5635C154.216 21.0032 155.121 21.223 155.966 21.223C157.132 21.223 158.047 20.7734 158.711 19.8741C159.374 18.9948 159.706 17.7458 159.706 16.1271Z" fill="#292929"/>
<path d="M189.399 4.82614C191.028 4.82614 192.235 5.46563 193.019 6.7446C193.803 8.02358 194.195 9.56235 194.195 11.3609C194.195 13.1395 193.964 15.8373 193.502 19.4544H188.223L187.559 12.5C187.438 11.301 187.278 10.5016 187.076 10.1019C186.875 9.70224 186.533 9.5024 186.051 9.5024C184.905 9.5024 184.261 10.5116 184.12 12.53L183.607 19.4544H178.238L177.574 12.5C177.454 11.301 177.293 10.5016 177.092 10.1019C176.891 9.70224 176.549 9.5024 176.066 9.5024C174.88 9.5024 174.236 10.5116 174.136 12.53L173.834 19.4544H168.284L167.65 5.2458H174.467L174.347 8.09353C174.387 8.01359 174.437 7.90368 174.498 7.76379C174.578 7.60392 174.759 7.33413 175.041 6.95444C175.342 6.57474 175.674 6.245 176.036 5.96523C176.398 5.68545 176.891 5.42566 177.514 5.18585C178.158 4.94604 178.841 4.82614 179.565 4.82614C180.732 4.82614 181.677 5.19584 182.401 5.93525C183.145 6.67466 183.628 7.49401 183.849 8.39329C184.15 7.89369 184.412 7.494 184.633 7.19424C184.854 6.89448 185.186 6.53477 185.628 6.11511C186.533 5.2558 187.79 4.82614 189.399 4.82614Z" fill="#292929"/>
<path d="M201.176 19.7542C199.628 19.7542 198.351 19.3046 197.345 18.4053C196.36 17.506 195.867 16.237 195.867 14.5983C195.867 12.9396 196.43 11.7406 197.557 11.0012C198.683 10.2418 200.04 9.86211 201.629 9.86211C203.218 9.86211 204.595 10.1119 205.762 10.6115C205.5 8.95284 204.444 8.1235 202.594 8.1235C201.75 8.1235 200.704 8.29337 199.457 8.63309L198.703 5.93525C200.513 5.19584 202.353 4.82614 204.223 4.82614C209.613 4.82614 212.307 7.10432 212.307 11.6607C212.307 13.2194 212.126 15.3777 211.764 18.1355L211.614 19.4544H206.636L206.455 17.8058C205.088 19.1047 203.328 19.7542 201.176 19.7542ZM203.891 16.0372C204.796 16.0372 205.57 15.7874 206.214 15.2878L206.033 13.3094C205.53 12.9696 204.967 12.7998 204.344 12.7998C203.74 12.7998 203.238 12.9496 202.836 13.2494C202.453 13.5492 202.262 13.9189 202.262 14.3585C202.262 14.7982 202.413 15.1879 202.715 15.5276C203.017 15.8673 203.409 16.0372 203.891 16.0372Z" fill="#292929"/>
<path d="M225.749 19.4544C223.356 17.1563 221.667 15.5276 220.681 14.5683L220.47 19.4544H214.92L214.105 0H221.285L220.923 9.23261L223.969 5.2458H230.063L225.809 11.1811L230.666 19.4544H225.749Z" fill="#292929"/>
<path d="M239.153 19.7542C236.88 19.7542 234.97 19.1047 233.421 17.8058C231.893 16.4868 231.129 14.5584 231.129 12.0204C231.129 10.4217 231.521 9.06275 232.305 7.94365C233.733 5.86531 235.945 4.82614 238.941 4.82614C241.234 4.82614 242.984 5.28577 244.19 6.20504C245.397 7.10432 246 8.35332 246 9.95204C246 11.191 245.497 12.2002 244.492 12.9796C243.506 13.739 242.058 14.1187 240.148 14.1187C239.364 14.1187 238.66 14.0588 238.036 13.9388L237.705 13.8789C237.805 14.5983 238.117 15.1379 238.64 15.4976C239.183 15.8373 239.826 16.0072 240.57 16.0072C241.797 16.0072 242.843 15.6375 243.707 14.8981L245.578 17.1463C245.256 17.526 244.874 17.8857 244.431 18.2254C243.989 18.5452 243.285 18.8849 242.32 19.2446C241.355 19.5843 240.299 19.7542 239.153 19.7542ZM241.596 9.68225C241.596 9.28257 241.435 8.95284 241.113 8.69305C240.812 8.43325 240.389 8.30336 239.846 8.30336C239.303 8.30336 238.791 8.54317 238.308 9.02278C237.845 9.5024 237.614 10.0719 237.614 10.7314C238.057 10.9313 238.63 11.0312 239.334 11.0312C240.057 11.0312 240.611 10.9113 240.993 10.6715C241.395 10.4117 241.596 10.0819 241.596 9.68225Z" fill="#292929"/>
<path d="M65.8847 61.305C69.7312 61.305 71.6544 62.7516 71.6544 65.6449C71.6544 66.2721 71.5249 66.8488 71.2658 67.3748C71.0266 67.8806 70.7476 68.2853 70.4287 68.5888C70.1098 68.872 69.7511 69.1148 69.3525 69.3171C68.7347 69.6206 68.2464 69.8027 67.8877 69.8634C68.3062 69.9646 68.7845 70.1669 69.3226 70.4704C69.8806 70.7537 70.3291 71.0572 70.6679 71.3809C71.0067 71.6844 71.3056 72.1194 71.5647 72.6859C71.8437 73.2322 71.9833 73.8392 71.9833 74.5068C71.9833 76.348 71.3156 77.6732 69.9803 78.4826C68.645 79.2919 66.5225 79.6965 63.6127 79.6965H54.5246L53 61.305H65.8847ZM62.8055 72.1396H61.3706L60.9221 76.6313H62.0283C62.8454 76.6313 63.5031 76.4087 64.0013 75.9636C64.4996 75.5185 64.7487 74.9317 64.7487 74.2033C64.7487 73.475 64.5594 72.9489 64.1807 72.6252C63.802 72.3015 63.3436 72.1396 62.8055 72.1396ZM62.5365 68.6191C63.234 68.6191 63.8219 68.4168 64.3003 68.0121C64.7786 67.6075 65.0177 67.0713 65.0177 66.4036C65.0177 65.0885 64.2704 64.431 62.7756 64.431H62.1179L61.6994 68.6191H62.5365Z" fill="#292929"/>
<path d="M78.5807 80C77.0461 80 75.7805 79.5448 74.784 78.6343C73.8075 77.7238 73.3192 76.439 73.3192 74.78C73.3192 73.1007 73.8772 71.8867 74.9933 71.1381C76.1094 70.3692 77.4546 69.9848 79.0291 69.9848C80.6036 69.9848 81.9688 70.2377 83.1247 70.7436C82.8656 69.0642 81.8193 68.2246 79.9857 68.2246C79.1487 68.2246 78.1123 68.3966 76.8767 68.7405L76.1293 66.0091C77.923 65.2605 79.7466 64.8862 81.6001 64.8862C86.9413 64.8862 89.6119 67.1927 89.6119 71.8058C89.6119 73.3839 89.4325 75.569 89.0738 78.3612L88.9243 79.6965H83.9917L83.8123 78.0273C82.457 79.3424 80.7132 80 78.5807 80ZM81.2712 76.2367C82.1681 76.2367 82.9354 75.9838 83.5731 75.478L83.3938 73.475C82.8955 73.131 82.3375 72.959 81.7196 72.959C81.1217 72.959 80.6235 73.1108 80.2249 73.4143C79.8462 73.7178 79.6569 74.0921 79.6569 74.5372C79.6569 74.9823 79.8064 75.3768 80.1053 75.7208C80.4043 76.0647 80.7929 76.2367 81.2712 76.2367Z" fill="#292929"/>
<path d="M104.368 75.1442C104.368 76.2974 103.99 77.2585 103.232 78.0273C102.475 78.7962 101.598 79.3222 100.602 79.6055C99.625 79.8685 98.6783 80 97.7615 80C96.8447 80 96.0376 79.9393 95.34 79.8179C94.6624 79.6965 94.0844 79.5549 93.6061 79.393C92.7292 79.0491 92.0317 78.7253 91.5135 78.4219L91.2444 78.2398L92.5598 75.478C93.7556 76.1659 94.7621 76.5099 95.5792 76.5099C96.3963 76.5099 96.8049 76.1659 96.8049 75.478C96.8049 75.134 96.5458 74.78 96.0276 74.4158C95.5094 74.0516 94.9414 73.7076 94.3236 73.3839C93.7257 73.0602 93.1677 72.5645 92.6495 71.8968C92.1313 71.2291 91.8722 70.4603 91.8722 69.5903C91.8722 68.0324 92.4502 66.8589 93.6061 66.0698C94.7621 65.2807 96.2867 64.8862 98.18 64.8862C99.1367 64.8862 100.073 64.9671 100.99 65.129C101.907 65.2908 102.595 65.4527 103.053 65.6146L103.711 65.8877L102.963 68.953C101.827 68.5281 100.861 68.3156 100.063 68.3156C99.2662 68.3156 98.8676 68.6292 98.8676 69.2564C98.8676 69.5599 99.057 69.8533 99.4356 70.1366C99.8143 70.3996 100.273 70.6626 100.811 70.9256C101.349 71.1887 101.887 71.4922 102.425 71.8361C102.963 72.1598 103.422 72.6151 103.8 73.2018C104.179 73.7683 104.368 74.4158 104.368 75.1442Z" fill="#292929"/>
<path d="M113.823 80C111.571 80 109.677 79.3424 108.143 78.0273C106.628 76.692 105.871 74.7395 105.871 72.17C105.871 70.5513 106.259 69.1755 107.037 68.0425C108.452 65.9383 110.644 64.8862 113.614 64.8862C115.886 64.8862 117.619 65.3515 118.815 66.2822C120.011 67.1927 120.609 68.4573 120.609 70.0759C120.609 71.3303 120.111 72.352 119.114 73.1411C118.138 73.91 116.703 74.2944 114.809 74.2944C114.032 74.2944 113.334 74.2337 112.717 74.1123L112.388 74.0516C112.487 74.78 112.796 75.3263 113.315 75.6904C113.853 76.0344 114.49 76.2064 115.228 76.2064C116.444 76.2064 117.48 75.8321 118.337 75.0835L120.19 77.3596C119.872 77.7441 119.493 78.1082 119.054 78.4522C118.616 78.7759 117.918 79.1199 116.962 79.4841C116.005 79.828 114.959 80 113.823 80ZM116.244 69.8027C116.244 69.3981 116.085 69.0642 115.766 68.8012C115.467 68.5382 115.048 68.4067 114.51 68.4067C113.972 68.4067 113.464 68.6495 112.986 69.1351C112.527 69.6206 112.298 70.1973 112.298 70.8649C112.737 71.0673 113.305 71.1684 114.002 71.1684C114.72 71.1684 115.268 71.047 115.646 70.8042C116.045 70.5412 116.244 70.2074 116.244 69.8027Z" fill="#292929"/>
<path d="M129.218 66.1609C129.397 65.9585 129.796 65.6955 130.413 65.3718C131.051 65.0481 131.719 64.8862 132.416 64.8862C133.134 64.8862 133.812 64.9975 134.449 65.22C135.107 65.4426 135.745 65.8068 136.363 66.3126C137 66.7982 137.509 67.5468 137.887 68.5584C138.286 69.5701 138.485 70.7739 138.485 72.17C138.485 74.7193 137.917 76.6616 136.781 77.997C135.645 79.3323 134.19 80 132.416 80C130.643 80 129.208 79.2716 128.112 77.8149C128.092 77.7744 128.072 77.7441 128.052 77.7238L127.544 79.6965H123.059L122.252 60H129.068L128.829 66.6464C128.909 66.525 129.038 66.3632 129.218 66.1609ZM130.533 68.953C129.218 68.953 128.56 70.1669 128.56 72.5948C128.56 73.4244 128.709 74.173 129.008 74.8407C129.327 75.4881 129.776 75.8118 130.354 75.8118C130.932 75.8118 131.37 75.5893 131.669 75.1442C131.968 74.699 132.147 74.2742 132.207 73.8695C132.267 73.4648 132.297 73.04 132.297 72.5948C132.297 70.1669 131.709 68.953 130.533 68.953Z" fill="#292929"/>
<path d="M145.231 80C143.696 80 142.431 79.5448 141.434 78.6343C140.458 77.7238 139.97 76.439 139.97 74.78C139.97 73.1007 140.528 71.8867 141.644 71.1381C142.76 70.3692 144.105 69.9848 145.68 69.9848C147.254 69.9848 148.619 70.2377 149.775 70.7436C149.516 69.0642 148.47 68.2246 146.636 68.2246C145.799 68.2246 144.763 68.3966 143.527 68.7405L142.78 66.0091C144.573 65.2605 146.397 64.8862 148.25 64.8862C153.592 64.8862 156.262 67.1927 156.262 71.8058C156.262 73.3839 156.083 75.569 155.724 78.3612L155.575 79.6965H150.642L150.463 78.0273C149.107 79.3424 147.364 80 145.231 80ZM147.922 76.2367C148.818 76.2367 149.586 75.9838 150.224 75.478L150.044 73.475C149.546 73.131 148.988 72.959 148.37 72.959C147.772 72.959 147.274 73.1108 146.875 73.4143C146.497 73.7178 146.307 74.0921 146.307 74.5372C146.307 74.9823 146.457 75.3768 146.756 75.7208C147.055 76.0647 147.443 76.2367 147.922 76.2367Z" fill="#292929"/>
<path d="M165.159 60L164.352 79.6965H158.851L158.044 60H165.159Z" fill="#292929"/>
<path d="M174.064 60L173.256 79.6965H167.756L166.949 60H174.064Z" fill="#292929"/>
<path d="M177.198 79.6965L175.703 61.305H186.884L190.262 70.3187L193.64 61.305H203.805L202.31 79.6965H196.181L195.105 68.7405L190.98 79.6965H186.137L182.011 68.7405L181.114 79.6965H177.198Z" fill="#292929"/>
<path d="M213.258 80C211.006 80 209.113 79.3424 207.578 78.0273C206.064 76.692 205.306 74.7395 205.306 72.17C205.306 70.5513 205.695 69.1755 206.472 68.0425C207.887 65.9383 210.079 64.8862 213.049 64.8862C215.321 64.8862 217.055 65.3515 218.251 66.2822C219.447 67.1927 220.044 68.4573 220.044 70.0759C220.044 71.3303 219.546 72.352 218.55 73.1411C217.573 73.91 216.138 74.2944 214.245 74.2944C213.468 74.2944 212.77 74.2337 212.152 74.1123L211.823 74.0516C211.923 74.78 212.232 75.3263 212.75 75.6904C213.288 76.0344 213.926 76.2064 214.663 76.2064C215.879 76.2064 216.915 75.8321 217.772 75.0835L219.626 77.3596C219.307 77.7441 218.928 78.1082 218.49 78.4522C218.051 78.7759 217.354 79.1199 216.397 79.4841C215.441 79.828 214.394 80 213.258 80ZM215.68 69.8027C215.68 69.3981 215.52 69.0642 215.201 68.8012C214.902 68.5382 214.484 68.4067 213.946 68.4067C213.408 68.4067 212.9 68.6495 212.421 69.1351C211.963 69.6206 211.734 70.1973 211.734 70.8649C212.172 71.0673 212.74 71.1684 213.438 71.1684C214.155 71.1684 214.703 71.047 215.082 70.8042C215.48 70.5412 215.68 70.2074 215.68 69.8027Z" fill="#292929"/>
<path d="M229.61 74.2944C229.59 75.4679 229.998 76.0546 230.836 76.0546C231.075 76.0546 231.364 75.9434 231.702 75.7208L232.33 78.6646C232.211 78.7658 232.041 78.8973 231.822 79.0592C231.623 79.2008 231.174 79.393 230.477 79.6358C229.799 79.8786 229.092 80 228.354 80C226.999 80 225.893 79.5346 225.036 78.6039C224.179 77.653 223.721 76.4492 223.661 74.9924L223.392 69.2564H221.09L221.449 65.3111H223.242L223.123 62.3369L230.208 60.8801L229.998 65.3111H231.732L232.091 69.2564H229.819L229.61 74.2944Z" fill="#292929"/>
<path d="M246.112 64.8862C247.248 64.8862 248.175 65.2301 248.893 65.9181C249.61 66.5857 250.088 67.395 250.327 68.346C250.587 69.2969 250.716 70.5109 250.716 71.9879C250.716 73.4648 250.487 76.0344 250.029 79.6965H244.797L244.139 72.6555C244.02 71.4416 243.86 70.6323 243.661 70.2276C243.462 69.823 243.123 69.6206 242.644 69.6206C241.469 69.6206 240.831 70.6424 240.731 72.6859L240.432 79.6965H234.932L234.124 60H241.239L240.94 67.8907C241.578 66.5959 242.635 65.6955 244.109 65.1897C244.727 64.9874 245.395 64.8862 246.112 64.8862Z" fill="#292929"/>
<path d="M254.52 78.2094C253.085 76.9954 252.367 75.0733 252.367 72.4431C252.367 69.8128 253.085 67.9009 254.52 66.7071C255.975 65.4932 257.908 64.8862 260.319 64.8862C262.731 64.8862 264.654 65.4932 266.089 66.7071C267.544 67.9009 268.271 69.8128 268.271 72.4431C268.271 75.0733 267.544 76.9954 266.089 78.2094C264.654 79.4031 262.731 80 260.319 80C257.908 80 255.975 79.4031 254.52 78.2094ZM259.064 69.0137C258.825 69.7016 258.705 70.8447 258.705 72.4431C258.705 74.0415 258.825 75.1947 259.064 75.9029C259.303 76.5908 259.721 76.9347 260.319 76.9347C260.917 76.9347 261.336 76.5908 261.575 75.9029C261.814 75.1947 261.934 74.0415 261.934 72.4431C261.934 70.8447 261.814 69.7016 261.575 69.0137C261.336 68.3055 260.917 67.9514 260.319 67.9514C259.721 67.9514 259.303 68.3055 259.064 69.0137Z" fill="#292929"/>
<path d="M269.767 72.17C269.767 70.7739 269.956 69.5701 270.335 68.5584C270.734 67.5468 271.252 66.7881 271.89 66.2822C273.065 65.3515 274.371 64.8862 275.806 64.8862C276.523 64.8862 277.181 65.0379 277.779 65.3414C278.397 65.6247 278.825 65.9181 279.064 66.2215L279.423 66.6464L279.184 60H286L285.193 79.6965H280.709L280.2 77.7238C279.005 79.221 277.53 79.9697 275.776 79.9697C274.042 79.9899 272.607 79.3323 271.471 77.997C270.335 76.6616 269.767 74.7193 269.767 72.17ZM277.719 68.953C276.543 68.953 275.955 70.1669 275.955 72.5948C275.955 73.04 275.985 73.4648 276.045 73.8695C276.105 74.2742 276.284 74.699 276.583 75.1442C276.882 75.5893 277.321 75.8118 277.898 75.8118C278.476 75.8118 278.915 75.4881 279.214 74.8407C279.533 74.173 279.692 73.4244 279.692 72.5948C279.692 70.1669 279.035 68.953 277.719 68.953Z" fill="#292929"/>
<path d="M160 37.6957L163.654 34.0528L168.474 38.8571L173.293 34L177 37.6957L172.128 42.5L177 47.3043L173.293 51L168.474 46.1957L163.654 50.9472L160 47.3043L164.766 42.5L160 37.6957Z" fill="#292929"/>
<path d="M165.711 97H160V118H165.711V97ZM173.289 97V118H179V97H173.289Z" fill="#292929"/>
<path d="M1.53491 138.722L7.17728e-06 141.182L9.04282 146.825L10.5777 144.366L1.53491 138.722ZM3.57132 135.459L12.6141 141.103L14.149 138.644L5.10622 133L3.57132 135.459Z" fill="#E1153A"/>
<path d="M329.614 138.722L331.149 141.182L322.106 146.825L320.571 144.366L329.614 138.722ZM327.578 135.459L318.535 141.103L317 138.644L326.043 133L327.578 135.459Z" fill="#E1153A"/>
</svg>
