<svg width="359" height="59" viewBox="0 0 359 59" fill="none" xmlns="http://www.w3.org/2000/svg">
<path d="M34.6157 10C44.9496 10 50.1165 13.7756 50.1165 21.3267C50.1165 22.9637 49.7685 24.4686 49.0724 25.8416C48.4299 27.1617 47.6803 28.2178 46.8236 29.0099C45.9669 29.7492 45.0032 30.3828 43.9323 30.9109C42.2724 31.703 40.9606 32.1782 39.9968 32.3366C41.1213 32.6007 42.4063 33.1287 43.852 33.9208C45.3512 34.6601 46.5559 35.4521 47.4661 36.297C48.3764 37.0891 49.1795 38.2244 49.8756 39.703C50.6252 41.1287 51 42.7129 51 44.4554C51 49.2607 49.2063 52.7195 45.6189 54.8317C42.0315 56.9439 36.3291 58 28.5118 58H4.09606L0 10H34.6157ZM26.3433 38.2772H22.4882L21.2835 50H24.2551C26.4504 50 28.2173 49.4191 29.5559 48.2574C30.8945 47.0957 31.5638 45.5644 31.5638 43.6634C31.5638 41.7624 31.0551 40.3894 30.0378 39.5446C29.0205 38.6997 27.789 38.2772 26.3433 38.2772ZM25.6205 29.0891C27.4945 29.0891 29.074 28.5611 30.3591 27.5049C31.6441 26.4488 32.2866 25.0495 32.2866 23.3069C32.2866 19.8746 30.2787 18.1584 26.263 18.1584H24.4961L23.3717 29.0891H25.6205Z" fill="#364E8A"/>
<path d="M87.937 10C98.0682 10 103.134 13.7756 103.134 21.3267C103.134 22.9637 102.793 24.4686 102.11 25.8416C101.48 27.1617 100.745 28.2178 99.9055 29.0099C99.0656 29.7492 98.1207 30.3828 97.0709 30.9109C95.4436 31.703 94.1575 32.1782 93.2126 32.3366C94.315 32.6007 95.5748 33.1287 96.9921 33.9208C98.4619 34.6601 99.643 35.4521 100.535 36.297C101.428 37.0891 102.215 38.2244 102.898 39.703C103.633 41.1287 104 42.7129 104 44.4554C104 49.2607 102.241 52.7195 98.7244 54.8317C95.2074 56.9439 89.6168 58 81.9528 58H58.0157L54 10H87.937ZM79.8268 38.2772H76.0472L74.8661 50H77.7795C79.9318 50 81.664 49.4191 82.9764 48.2574C84.2887 47.0957 84.9449 45.5644 84.9449 43.6634C84.9449 41.7624 84.4462 40.3894 83.4488 39.5446C82.4514 38.6997 81.2441 38.2772 79.8268 38.2772ZM79.1181 29.0891C80.9554 29.0891 82.5039 28.5611 83.7638 27.5049C85.0236 26.4488 85.6535 25.0495 85.6535 23.3069C85.6535 19.8746 83.685 18.1584 79.748 18.1584H78.0157L76.9134 29.0891H79.1181Z" fill="#364E8A"/>
<path d="M248.937 10C259.068 10 264.134 13.7756 264.134 21.3267C264.134 22.9637 263.793 24.4686 263.11 25.8416C262.48 27.1617 261.745 28.2178 260.906 29.0099C260.066 29.7492 259.121 30.3828 258.071 30.9109C256.444 31.703 255.157 32.1782 254.213 32.3366C255.315 32.6007 256.575 33.1287 257.992 33.9208C259.462 34.6601 260.643 35.4521 261.535 36.297C262.428 37.0891 263.215 38.2244 263.898 39.703C264.633 41.1287 265 42.7129 265 44.4554C265 49.2607 263.241 52.7195 259.724 54.8317C256.207 56.9439 250.617 58 242.953 58H219.016L215 10H248.937ZM240.827 38.2772H237.047L235.866 50H238.78C240.932 50 242.664 49.4191 243.976 48.2574C245.289 47.0957 245.945 45.5644 245.945 43.6634C245.945 41.7624 245.446 40.3894 244.449 39.5446C243.451 38.6997 242.244 38.2772 240.827 38.2772ZM240.118 29.0891C241.955 29.0891 243.504 28.5611 244.764 27.5049C246.024 26.4488 246.654 25.0495 246.654 23.3069C246.654 19.8746 244.685 18.1584 240.748 18.1584H239.016L237.913 29.0891H240.118Z" fill="#364E8A"/>
<path d="M122.76 58.176L117 0H147.24L142.92 43.296L160.296 42.336L154.824 58.176H122.76Z" fill="#E1153A"/>
<path d="M197.644 58L194.474 50H174.265L171.254 58H160L173.393 10H201.607L215 58H197.644ZM190.432 39.703L184.171 23.8614L178.148 39.703H190.432Z" fill="#364E8A"/>
<path d="M267 34.4571C267 26.4825 269.317 20.4127 273.95 16.2476C278.635 12.0825 285.306 10 293.962 10C302.669 10 309.339 12.0825 313.973 16.2476C318.658 20.4127 321 26.4825 321 34.4571C321 42.4317 318.53 48.3492 313.591 52.2095C308.703 56.0698 302.16 58 293.962 58C285.815 58 279.272 56.0698 274.332 52.2095C269.444 48.3492 267 42.4317 267 34.4571ZM300.683 34.1524C300.683 23.8921 298.443 18.7619 293.962 18.7619C289.532 18.7619 287.317 23.8921 287.317 34.1524C287.317 44.4127 289.532 49.5429 293.962 49.5429C298.443 49.5429 300.683 44.4127 300.683 34.1524Z" fill="#364E8A"/>
<path d="M327.112 57.784H324.568L325.24 55.36H322.72L323.392 53.008H325.888L326.488 50.824H323.824L324.496 48.472H327.136L327.808 46H330.376L329.68 48.472H331.96L332.632 46H335.2L334.504 48.472H337.048L336.4 50.824H333.856L333.256 53.008H335.944L335.296 55.36H332.608L331.936 57.784H329.392L330.064 55.36H327.784L327.112 57.784ZM329.032 50.824L328.432 53.008H330.712L331.312 50.824H329.032Z" fill="#E1153A"/>
<path d="M344.648 54.488C344.648 54.164 344.54 53.906 344.324 53.714C344.108 53.51 343.838 53.408 343.514 53.408C343.19 53.408 342.884 53.48 342.596 53.624C342.32 53.768 342.122 53.972 342.002 54.236C342.002 54.548 342.14 54.836 342.416 55.1C342.692 55.352 343.016 55.478 343.388 55.478C343.772 55.478 344.078 55.394 344.306 55.226C344.534 55.058 344.648 54.812 344.648 54.488ZM346.538 50.042C345.758 49.73 345.002 49.574 344.27 49.574C343.55 49.574 342.956 49.784 342.488 50.204C342.02 50.624 341.786 51.146 341.786 51.77C341.834 51.698 341.906 51.608 342.002 51.5C342.098 51.392 342.344 51.248 342.74 51.068C343.148 50.888 343.604 50.798 344.108 50.798C345.332 50.798 346.316 51.122 347.06 51.77C347.816 52.418 348.194 53.306 348.194 54.434C348.194 55.55 347.75 56.48 346.862 57.224C345.986 57.968 344.75 58.34 343.154 58.34C341.57 58.34 340.25 57.878 339.194 56.954C338.15 56.018 337.628 54.638 337.628 52.814C337.628 50.978 338.162 49.55 339.23 48.53C340.298 47.51 341.576 47 343.064 47C344.552 47 345.944 47.378 347.24 48.134L346.538 50.042Z" fill="#E1153A"/>
<path d="M351.7 47H358.342L357.784 52.598H358.936L358.612 55.172H357.514L357.244 57.908H354.112L353.842 55.172H349L349.144 52.598L351.7 47ZM353.284 49.592L351.88 52.598H353.572L353.284 49.592Z" fill="#E1153A"/>
</svg>
