<svg width="315" height="61" viewBox="0 0 315 61" fill="none" xmlns="http://www.w3.org/2000/svg">
<path d="M34.6157 11.176C44.9496 11.176 50.1165 14.9516 50.1165 22.5028C50.1165 24.1397 49.7685 25.6447 49.0724 27.0176C48.4299 28.3377 47.6803 29.3938 46.8236 30.1859C45.9669 30.9252 45.0032 31.5589 43.9323 32.0869C42.2724 32.879 40.9606 33.3542 39.9968 33.5127C41.1213 33.7767 42.4063 34.3047 43.852 35.0968C45.3512 35.8361 46.5559 36.6282 47.4661 37.4731C48.3764 38.2651 49.1795 39.4004 49.8756 40.879C50.6252 42.3047 51 43.8889 51 45.6315C51 50.4368 49.2063 53.8955 45.6189 56.0077C42.0315 58.1199 36.3291 59.176 28.5118 59.176H4.09606L0 11.176H34.6157ZM26.3433 39.4533H22.4882L21.2835 51.176H24.2551C26.4504 51.176 28.2173 50.5952 29.5559 49.4335C30.8945 48.2717 31.5638 46.7404 31.5638 44.8394C31.5638 42.9384 31.0551 41.5655 30.0378 40.7206C29.0205 39.8757 27.789 39.4533 26.3433 39.4533ZM25.6205 30.2651C27.4945 30.2651 29.074 29.7371 30.3591 28.681C31.6441 27.6249 32.2866 26.2255 32.2866 24.483C32.2866 21.0506 30.2787 19.3344 26.263 19.3344H24.4961L23.3717 30.2651H25.6205Z" fill="#364E8A"/>
<path d="M87.937 11.176C98.0682 11.176 103.134 14.9516 103.134 22.5028C103.134 24.1397 102.793 25.6447 102.11 27.0176C101.48 28.3377 100.745 29.3938 99.9055 30.1859C99.0656 30.9252 98.1207 31.5589 97.0709 32.0869C95.4436 32.879 94.1575 33.3542 93.2126 33.5127C94.315 33.7767 95.5748 34.3047 96.9921 35.0968C98.4619 35.8361 99.643 36.6282 100.535 37.4731C101.428 38.2651 102.215 39.4004 102.898 40.879C103.633 42.3047 104 43.8889 104 45.6315C104 50.4368 102.241 53.8955 98.7244 56.0077C95.2074 58.1199 89.6168 59.176 81.9528 59.176H58.0157L54 11.176H87.937ZM79.8268 39.4533H76.0472L74.8661 51.176H77.7795C79.9318 51.176 81.664 50.5952 82.9764 49.4335C84.2887 48.2717 84.9449 46.7404 84.9449 44.8394C84.9449 42.9384 84.4462 41.5655 83.4488 40.7206C82.4514 39.8757 81.2441 39.4533 79.8268 39.4533ZM79.1181 30.2651C80.9554 30.2651 82.5039 29.7371 83.7638 28.681C85.0236 27.6249 85.6535 26.2255 85.6535 24.483C85.6535 21.0506 83.685 19.3344 79.748 19.3344H78.0157L76.9134 30.2651H79.1181Z" fill="#364E8A"/>
<path d="M122.76 58.176L117 0H147.24L142.92 43.296L160.296 42.336L154.824 58.176H122.76Z" fill="#E1153A"/>
<path fill-rule="evenodd" clip-rule="evenodd" d="M308.681 47.1174C305.19 47.1176 302.361 49.9463 302.361 53.4369C302.361 56.9271 305.19 59.756 308.681 59.7563C312.171 59.756 315 56.9271 315 53.4369C315 49.9463 312.171 47.1176 308.681 47.1174ZM308.681 58.8745C310.184 58.8743 311.54 58.2665 312.526 57.2818C313.51 56.2963 314.118 54.9398 314.118 53.4369C314.118 52.1922 313.7 51.0486 312.998 50.1324C312.994 50.1341 312.549 49.6108 312.545 49.6123C312.538 49.6056 312.532 49.5985 312.526 49.5918C311.54 48.6071 310.184 47.9994 308.681 47.9991C307.178 47.9994 305.821 48.6071 304.835 49.5918C303.851 50.5771 303.243 51.9338 303.243 53.4369C303.243 54.6812 303.661 55.8244 304.363 56.7406C304.37 56.7473 304.829 57.2751 304.836 57.2818C305.821 58.2665 307.178 58.8743 308.681 58.8745Z" fill="#364E8A"/>
<path d="M306.562 55.0967C306.404 55.0054 306.202 55.0595 306.11 55.2175C306.028 55.3596 305.936 55.4957 305.836 55.6244C305.724 55.7686 305.75 55.9762 305.894 56.0885C306.038 56.2007 306.246 56.1749 306.358 56.0309C306.477 55.878 306.585 55.717 306.683 55.5486C306.774 55.3904 306.72 55.1882 306.562 55.0967Z" fill="#E1153A"/>
<path d="M305.605 50.0929C305.452 49.9746 305.291 49.8665 305.122 49.7696C304.964 49.6786 304.762 49.7335 304.671 49.8919C304.58 50.0503 304.635 50.2523 304.793 50.3431C304.935 50.4249 305.072 50.5162 305.201 50.6161C305.345 50.7276 305.553 50.7011 305.665 50.5567C305.776 50.4124 305.75 50.2047 305.605 50.0929Z" fill="#E1153A"/>
<path d="M311.76 49.9701C311.913 49.8518 312.075 49.7437 312.244 49.6468C312.402 49.5558 312.604 49.6107 312.695 49.7691C312.786 49.9275 312.731 50.1295 312.573 50.2203C312.43 50.3021 312.294 50.3934 312.165 50.4933C312.02 50.6048 311.813 50.5783 311.701 50.4339C311.589 50.2896 311.616 50.0819 311.76 49.9701Z" fill="#E1153A"/>
<path d="M305.568 56.9311C305.415 57.0495 305.254 57.1576 305.085 57.2545C304.926 57.3455 304.724 57.2906 304.633 57.1322C304.543 56.9738 304.597 56.7718 304.756 56.681C304.898 56.5992 305.034 56.5079 305.163 56.408C305.308 56.2965 305.516 56.323 305.627 56.4674C305.739 56.6116 305.713 56.8194 305.568 56.9311Z" fill="#E1153A"/>
<path d="M306.32 52.0819C306.389 52.2507 306.582 52.3314 306.751 52.2619C306.92 52.1924 307.001 51.9993 306.931 51.8303C306.857 51.6501 306.771 51.4759 306.674 51.3093C306.581 51.1517 306.379 51.0983 306.221 51.1905C306.064 51.2826 306.01 51.4849 306.102 51.6427C306.184 51.7833 306.257 51.93 306.32 52.0819Z" fill="#E1153A"/>
<path d="M306.915 53.089C306.733 53.0897 306.585 53.2384 306.586 53.4212V53.4367C306.586 53.6029 306.575 53.7665 306.553 53.9263C306.528 54.1071 306.654 54.2742 306.835 54.2989C307.016 54.3237 307.183 54.1971 307.208 54.0163C307.234 53.8266 307.247 53.6331 307.247 53.4367V53.4182C307.247 53.2356 307.098 53.0882 306.915 53.089Z" fill="#E1153A"/>
<path d="M310.775 53.4447V53.4367C310.775 53.2731 310.786 53.1125 310.807 52.9549C310.832 52.7741 310.705 52.6075 310.524 52.5829C310.343 52.5586 310.176 52.6854 310.152 52.8664C310.126 53.0531 310.113 53.2434 310.113 53.4367V53.4462C310.114 53.6287 310.262 53.7764 310.445 53.776C310.627 53.7755 310.775 53.6274 310.775 53.4447Z" fill="#E1153A"/>
<path d="M311.038 54.7846C310.969 54.6156 310.776 54.5344 310.607 54.6035C310.438 54.6727 310.357 54.8657 310.426 55.0347C310.5 55.2154 310.586 55.3893 310.683 55.5564C310.774 55.7142 310.977 55.7678 311.135 55.6761C311.293 55.5844 311.346 55.382 311.255 55.224C311.173 55.0834 311.1 54.9365 311.038 54.7846Z" fill="#E1153A"/>
<path d="M312.561 56.5264V56.5266C312.419 56.4446 312.283 56.3531 312.154 56.2528C312.01 56.1408 311.802 56.1669 311.69 56.3111C311.578 56.4552 311.604 56.6629 311.748 56.7751C311.901 56.8937 312.062 57.0022 312.231 57.0995C312.389 57.1908 312.591 57.1363 312.683 56.9781C312.774 56.8201 312.719 56.6177 312.561 56.5264Z" fill="#E1153A"/>
<path d="M311.462 50.7913C311.317 50.6794 311.109 50.7059 310.998 50.8501C310.879 51.0032 310.771 51.1644 310.674 51.333C310.583 51.4914 310.637 51.6934 310.795 51.7846C310.954 51.8757 311.156 51.8212 311.247 51.6628C311.329 51.5205 311.42 51.3844 311.52 51.2553C311.632 51.111 311.606 50.9033 311.462 50.7913Z" fill="#E1153A"/>
<path d="M178.209 59.176C174.065 59.176 170.647 58.0013 167.956 55.6519C165.319 53.3025 164 49.9873 164 45.7061C164 41.3728 165.507 38.2403 168.521 36.3086C171.535 34.3246 175.168 33.3327 179.42 33.3327C183.672 33.3327 187.359 33.9853 190.481 35.2905C189.781 30.9572 186.955 28.7905 182.004 28.7905C179.743 28.7905 176.944 29.2343 173.607 30.1218L171.589 23.0736C176.433 21.1419 181.358 20.176 186.363 20.176C200.788 20.176 208 26.1278 208 38.0314C208 42.1037 207.516 47.7423 206.547 54.9471L206.143 58.3929H192.822L192.338 54.0857C188.678 57.4792 183.968 59.176 178.209 59.176ZM185.475 49.4652C187.897 49.4652 189.969 48.8126 191.692 47.5074L191.207 42.3387C189.862 41.4511 188.355 41.0074 186.686 41.0074C185.072 41.0074 183.726 41.3989 182.65 42.182C181.627 42.9652 181.116 43.931 181.116 45.0796C181.116 46.2282 181.519 47.2463 182.327 48.1339C183.134 49.0214 184.183 49.4652 185.475 49.4652Z" fill="#364E8A"/>
<path d="M229.451 24.1942C229.926 23.6682 230.982 22.9843 232.619 22.1426C234.308 21.301 236.077 20.8801 237.924 20.8801C239.825 20.8801 241.62 21.1694 243.309 21.7481C245.052 22.3268 246.741 23.2736 248.378 24.5888C250.067 25.8513 251.413 27.7977 252.416 30.4279C253.472 33.0582 254 36.1882 254 39.8179C254 46.4461 252.495 51.4962 249.486 54.9681C246.477 58.4401 242.623 60.176 237.924 60.176C233.226 60.176 229.425 58.2822 226.521 54.4947C226.468 54.3895 226.416 54.3106 226.363 54.258L225.017 59.387H213.138L211 8.17603H229.055L228.422 25.4568C228.633 25.1411 228.976 24.7203 229.451 24.1942ZM232.936 31.4537C229.451 31.4537 227.709 34.61 227.709 40.9226C227.709 43.0794 228.105 45.0258 228.897 46.7618C229.742 48.4451 230.929 49.2868 232.46 49.2868C233.991 49.2868 235.153 48.7081 235.945 47.5508C236.737 46.3935 237.212 45.2888 237.37 44.2367C237.529 43.1846 237.608 42.0799 237.608 40.9226C237.608 34.61 236.05 31.4537 232.936 31.4537Z" fill="#364E8A"/>
<path d="M263.184 54.5555C259.395 51.423 257.5 46.4632 257.5 39.676C257.5 32.8889 259.395 27.9551 263.184 24.8748C267.026 21.7423 272.132 20.176 278.5 20.176C284.868 20.176 289.947 21.7423 293.737 24.8748C297.579 27.9551 299.5 32.8889 299.5 39.676C299.5 46.4632 297.579 51.423 293.737 54.5555C289.947 57.6359 284.868 59.176 278.5 59.176C272.132 59.176 267.026 57.6359 263.184 54.5555ZM275.184 30.8266C274.553 32.6017 274.237 35.5515 274.237 39.676C274.237 43.8005 274.553 46.7764 275.184 48.6037C275.816 50.3788 276.921 51.2664 278.5 51.2664C280.079 51.2664 281.184 50.3788 281.816 48.6037C282.447 46.7764 282.763 43.8005 282.763 39.676C282.763 35.5515 282.447 32.6017 281.816 30.8266C281.184 28.9993 280.079 28.0857 278.5 28.0857C276.921 28.0857 275.816 28.9993 275.184 30.8266Z" fill="#364E8A"/>
</svg>
