<svg width="164" height="208" viewBox="0 0 164 208" fill="none" xmlns="http://www.w3.org/2000/svg">
<path fill-rule="evenodd" clip-rule="evenodd" d="M88.4606 121.711L164 79.485V124.465L160.223 127.219L164 129.973V166.691L88.4606 208V121.711ZM104.364 186.171V167.93L148.594 142.009V159.29L104.364 186.171ZM104.364 132.2V150.441L148.594 123.56V106.28L104.364 132.2Z" fill="#364E8A"/>
<path d="M0 166.691V79.485L71.0667 121.711V208L0 166.691Z" fill="#364E8A"/>
<path fill-rule="evenodd" clip-rule="evenodd" d="M156.444 63.9942L82.6409 21.2126L7.33043 64.5602L80.3324 107.803L112.379 89.3571L112.935 84.774L117.186 86.5903L156.444 63.9942ZM68.0596 47.7237L83.2819 38.9619L127.083 64.9076L112.662 73.2082L68.0596 47.7237ZM53.6387 56.024L38.4164 64.7858L83.0187 90.2703L97.4399 81.9697L53.6387 56.024Z" fill="#364E8A"/>
</svg>
