<svg width="105" height="120" viewBox="0 0 105 120" fill="none" xmlns="http://www.w3.org/2000/svg">
<path fill-rule="evenodd" clip-rule="evenodd" d="M56.6364 64.2611L105 37.2607V66.022L102.582 67.7829L105 69.5438V93.0225L56.6364 119.436V64.2611ZM66.8182 105.478V93.8147L95.1364 77.2403V88.2899L66.8182 105.478ZM66.8182 70.9681V82.6316L95.1364 65.4433V54.3938L66.8182 70.9681Z" fill="#364E8A"/>
<path d="M0 93.0225V37.2607L45.5 64.2611V119.436L0 93.0225Z" fill="#364E8A"/>
<path fill-rule="evenodd" clip-rule="evenodd" d="M100.162 27.3555L52.9104 0L4.6933 27.7174L51.4324 55.3678L71.9502 43.5732L72.3063 40.6426L75.0279 41.804L100.162 27.3555ZM43.5747 16.9518L53.3207 11.3493L81.3642 27.9396L72.1311 33.2472L43.5747 16.9518ZM34.3419 22.2592L24.5959 27.8617L53.1523 44.157L62.3853 38.8494L34.3419 22.2592Z" fill="#364E8A"/>
</svg>
