<svg width="315" height="284" viewBox="0 0 315 284" fill="none" xmlns="http://www.w3.org/2000/svg">
<path fill-rule="evenodd" clip-rule="evenodd" d="M158.461 121.711L234 79.485V124.465L230.223 127.219L234 129.973V166.691L158.461 208V121.711ZM174.364 186.171V167.93L218.594 142.009V159.29L174.364 186.171ZM174.364 132.2V150.441L218.594 123.56V106.28L174.364 132.2Z" fill="#364E8A"/>
<path d="M70 166.691V79.485L141.067 121.711V208L70 166.691Z" fill="#364E8A"/>
<path fill-rule="evenodd" clip-rule="evenodd" d="M226.444 63.9942L152.641 21.2126L77.3304 64.5602L150.332 107.803L182.379 89.3571L182.935 84.774L187.186 86.5903L226.444 63.9942ZM138.06 47.7237L153.282 38.9619L197.083 64.9076L182.662 73.2082L138.06 47.7237ZM123.639 56.024L108.416 64.7858L153.019 90.2703L167.44 81.9697L123.639 56.024Z" fill="#364E8A"/>
<path d="M34.6157 234.176C44.9496 234.176 50.1165 237.952 50.1165 245.503C50.1165 247.14 49.7685 248.645 49.0724 250.018C48.4299 251.338 47.6803 252.394 46.8236 253.186C45.9669 253.925 45.0032 254.559 43.9323 255.087C42.2724 255.879 40.9606 256.354 39.9968 256.513C41.1213 256.777 42.4063 257.305 43.852 258.097C45.3512 258.836 46.5559 259.628 47.4661 260.473C48.3764 261.265 49.1795 262.4 49.8756 263.879C50.6252 265.305 51 266.889 51 268.631C51 273.437 49.2063 276.895 45.6189 279.008C42.0315 281.12 36.3291 282.176 28.5118 282.176H4.09606L0 234.176H34.6157ZM26.3433 262.453H22.4882L21.2835 274.176H24.2551C26.4504 274.176 28.2173 273.595 29.5559 272.433C30.8945 271.272 31.5638 269.74 31.5638 267.839C31.5638 265.938 31.0551 264.565 30.0378 263.721C29.0205 262.876 27.789 262.453 26.3433 262.453ZM25.6205 253.265C27.4945 253.265 29.074 252.737 30.3591 251.681C31.6441 250.625 32.2866 249.226 32.2866 247.483C32.2866 244.051 30.2787 242.334 26.263 242.334H24.4961L23.3717 253.265H25.6205Z" fill="#364E8A"/>
<path d="M87.937 234.176C98.0682 234.176 103.134 237.952 103.134 245.503C103.134 247.14 102.793 248.645 102.11 250.018C101.48 251.338 100.745 252.394 99.9055 253.186C99.0656 253.925 98.1207 254.559 97.0709 255.087C95.4436 255.879 94.1575 256.354 93.2126 256.513C94.315 256.777 95.5748 257.305 96.9921 258.097C98.4619 258.836 99.643 259.628 100.535 260.473C101.428 261.265 102.215 262.4 102.898 263.879C103.633 265.305 104 266.889 104 268.631C104 273.437 102.241 276.895 98.7244 279.008C95.2074 281.12 89.6168 282.176 81.9528 282.176H58.0157L54 234.176H87.937ZM79.8268 262.453H76.0472L74.8661 274.176H77.7795C79.9318 274.176 81.664 273.595 82.9764 272.433C84.2887 271.272 84.9449 269.74 84.9449 267.839C84.9449 265.938 84.4462 264.565 83.4488 263.721C82.4514 262.876 81.2441 262.453 79.8268 262.453ZM79.1181 253.265C80.9554 253.265 82.5039 252.737 83.7638 251.681C85.0236 250.625 85.6535 249.226 85.6535 247.483C85.6535 244.051 83.685 242.334 79.748 242.334H78.0157L76.9134 253.265H79.1181Z" fill="#364E8A"/>
<path d="M122.76 281.176L117 223H147.24L142.92 266.296L160.296 265.336L154.824 281.176H122.76Z" fill="#E1153A"/>
<path fill-rule="evenodd" clip-rule="evenodd" d="M308.681 270.117C305.19 270.118 302.361 272.946 302.361 276.437C302.361 279.927 305.19 282.756 308.681 282.756C312.171 282.756 315 279.927 315 276.437C315 272.946 312.171 270.118 308.681 270.117ZM308.681 281.874C310.184 281.874 311.54 281.267 312.526 280.282C313.51 279.296 314.118 277.94 314.118 276.437C314.118 275.192 313.7 274.049 312.998 273.132C312.994 273.134 312.549 272.611 312.545 272.612C312.538 272.606 312.532 272.598 312.526 272.592C311.54 271.607 310.184 270.999 308.681 270.999C307.178 270.999 305.821 271.607 304.835 272.592C303.851 273.577 303.243 274.934 303.243 276.437C303.243 277.681 303.661 278.824 304.363 279.741C304.37 279.747 304.829 280.275 304.836 280.282C305.821 281.267 307.178 281.874 308.681 281.874Z" fill="#364E8A"/>
<path d="M306.562 278.097C306.404 278.005 306.202 278.059 306.11 278.217C306.028 278.36 305.936 278.496 305.836 278.624C305.724 278.769 305.75 278.976 305.894 279.089C306.038 279.201 306.246 279.175 306.358 279.031C306.477 278.878 306.585 278.717 306.683 278.549C306.774 278.39 306.72 278.188 306.562 278.097Z" fill="#E1153A"/>
<path d="M305.605 273.093C305.452 272.975 305.291 272.866 305.122 272.77C304.964 272.679 304.762 272.733 304.671 272.892C304.58 273.05 304.635 273.252 304.793 273.343C304.935 273.425 305.072 273.516 305.201 273.616C305.345 273.728 305.553 273.701 305.665 273.557C305.776 273.412 305.75 273.205 305.605 273.093Z" fill="#E1153A"/>
<path d="M311.76 272.97C311.913 272.852 312.075 272.744 312.244 272.647C312.402 272.556 312.604 272.611 312.695 272.769C312.786 272.928 312.731 273.129 312.573 273.22C312.43 273.302 312.294 273.393 312.165 273.493C312.02 273.605 311.813 273.578 311.701 273.434C311.589 273.29 311.616 273.082 311.76 272.97Z" fill="#E1153A"/>
<path d="M305.568 279.931C305.415 280.05 305.254 280.158 305.085 280.254C304.926 280.346 304.724 280.291 304.633 280.132C304.543 279.974 304.597 279.772 304.756 279.681C304.898 279.599 305.034 279.508 305.163 279.408C305.308 279.296 305.516 279.323 305.627 279.467C305.739 279.612 305.713 279.819 305.568 279.931Z" fill="#E1153A"/>
<path d="M306.32 275.082C306.389 275.251 306.582 275.331 306.751 275.262C306.92 275.192 307.001 274.999 306.931 274.83C306.857 274.65 306.771 274.476 306.674 274.309C306.581 274.152 306.379 274.098 306.221 274.19C306.064 274.283 306.01 274.485 306.102 274.643C306.184 274.783 306.257 274.93 306.32 275.082Z" fill="#E1153A"/>
<path d="M306.915 276.089C306.733 276.09 306.585 276.238 306.586 276.421V276.437C306.586 276.603 306.575 276.767 306.553 276.926C306.528 277.107 306.654 277.274 306.835 277.299C307.016 277.324 307.183 277.197 307.208 277.016C307.234 276.827 307.247 276.633 307.247 276.437V276.418C307.247 276.236 307.098 276.088 306.915 276.089Z" fill="#E1153A"/>
<path d="M310.775 276.445V276.437C310.775 276.273 310.786 276.112 310.807 275.955C310.832 275.774 310.705 275.607 310.524 275.583C310.343 275.559 310.176 275.685 310.152 275.866C310.126 276.053 310.113 276.243 310.113 276.437V276.446C310.114 276.629 310.262 276.776 310.445 276.776C310.627 276.776 310.775 276.627 310.775 276.445Z" fill="#E1153A"/>
<path d="M311.038 277.785C310.969 277.616 310.776 277.534 310.607 277.604C310.438 277.673 310.357 277.866 310.426 278.035C310.5 278.215 310.586 278.389 310.683 278.556C310.774 278.714 310.977 278.768 311.135 278.676C311.293 278.584 311.346 278.382 311.255 278.224C311.173 278.083 311.1 277.937 311.038 277.785Z" fill="#E1153A"/>
<path d="M312.561 279.526V279.527C312.419 279.445 312.283 279.353 312.154 279.253C312.01 279.141 311.802 279.167 311.69 279.311C311.578 279.455 311.604 279.663 311.748 279.775C311.901 279.894 312.062 280.002 312.231 280.1C312.389 280.191 312.591 280.136 312.683 279.978C312.774 279.82 312.719 279.618 312.561 279.526Z" fill="#E1153A"/>
<path d="M311.462 273.791C311.317 273.679 311.109 273.706 310.998 273.85C310.879 274.003 310.771 274.164 310.674 274.333C310.583 274.491 310.637 274.693 310.795 274.785C310.954 274.876 311.156 274.821 311.247 274.663C311.329 274.52 311.42 274.384 311.52 274.255C311.632 274.111 311.606 273.903 311.462 273.791Z" fill="#E1153A"/>
<path d="M178.209 282.176C174.065 282.176 170.647 281.001 167.956 278.652C165.319 276.303 164 272.987 164 268.706C164 264.373 165.507 261.24 168.521 259.309C171.535 257.325 175.168 256.333 179.42 256.333C183.672 256.333 187.359 256.985 190.481 258.29C189.781 253.957 186.955 251.79 182.004 251.79C179.743 251.79 176.944 252.234 173.607 253.122L171.589 246.074C176.433 244.142 181.358 243.176 186.363 243.176C200.788 243.176 208 249.128 208 261.031C208 265.104 207.516 270.742 206.547 277.947L206.143 281.393H192.822L192.338 277.086C188.678 280.479 183.968 282.176 178.209 282.176ZM185.475 272.465C187.897 272.465 189.969 271.813 191.692 270.507L191.207 265.339C189.862 264.451 188.355 264.007 186.686 264.007C185.072 264.007 183.726 264.399 182.65 265.182C181.627 265.965 181.116 266.931 181.116 268.08C181.116 269.228 181.519 270.246 182.327 271.134C183.134 272.021 184.183 272.465 185.475 272.465Z" fill="#364E8A"/>
<path d="M229.451 247.194C229.926 246.668 230.982 245.984 232.619 245.143C234.308 244.301 236.077 243.88 237.924 243.88C239.825 243.88 241.62 244.169 243.309 244.748C245.052 245.327 246.741 246.274 248.378 247.589C250.067 248.851 251.413 250.798 252.416 253.428C253.472 256.058 254 259.188 254 262.818C254 269.446 252.495 274.496 249.486 277.968C246.477 281.44 242.623 283.176 237.924 283.176C233.226 283.176 229.425 281.282 226.521 277.495C226.468 277.389 226.416 277.311 226.363 277.258L225.017 282.387H213.138L211 231.176H229.055L228.422 248.457C228.633 248.141 228.976 247.72 229.451 247.194ZM232.936 254.454C229.451 254.454 227.709 257.61 227.709 263.923C227.709 266.079 228.105 268.026 228.897 269.762C229.742 271.445 230.929 272.287 232.46 272.287C233.991 272.287 235.153 271.708 235.945 270.551C236.737 269.394 237.212 268.289 237.37 267.237C237.529 266.185 237.608 265.08 237.608 263.923C237.608 257.61 236.05 254.454 232.936 254.454Z" fill="#364E8A"/>
<path d="M263.184 277.556C259.395 274.423 257.5 269.463 257.5 262.676C257.5 255.889 259.395 250.955 263.184 247.875C267.026 244.742 272.132 243.176 278.5 243.176C284.868 243.176 289.947 244.742 293.737 247.875C297.579 250.955 299.5 255.889 299.5 262.676C299.5 269.463 297.579 274.423 293.737 277.556C289.947 280.636 284.868 282.176 278.5 282.176C272.132 282.176 267.026 280.636 263.184 277.556ZM275.184 253.827C274.553 255.602 274.237 258.552 274.237 262.676C274.237 266.801 274.553 269.776 275.184 271.604C275.816 273.379 276.921 274.266 278.5 274.266C280.079 274.266 281.184 273.379 281.816 271.604C282.447 269.776 282.763 266.801 282.763 262.676C282.763 258.552 282.447 255.602 281.816 253.827C281.184 251.999 280.079 251.086 278.5 251.086C276.921 251.086 275.816 251.999 275.184 253.827Z" fill="#364E8A"/>
</svg>
